<svg width="150" height="26" viewBox="0 0 150 26" fill="none" xmlns="http://www.w3.org/2000/svg">
<path d="M1.49298 7.12551H3.31135V13.0017H10.5083V7.12551H12.3266V20.792H10.5083V14.533H3.31135V20.792H1.49298V7.12551ZM20.953 15.2029V20.792H19.1346V15.2029L13.8518 7.12551H16.0147L20.1108 13.6334L24.1112 7.12551H26.1784L20.953 15.2029ZM29.5364 13.6716H33.0966C35.0872 13.6844 36.0825 12.8486 36.0825 11.1642C36.0825 9.49258 35.0872 8.65677 33.0966 8.65677H29.5364V13.6716ZM27.718 7.12551H33.7091C35.0744 7.12551 36.1144 7.47643 36.829 8.17825C37.5436 8.88008 37.9009 9.8754 37.9009 11.1642C37.9009 12.453 37.5436 13.4547 36.829 14.1693C36.1144 14.8711 35.0744 15.2157 33.7091 15.2029H29.5364V20.792H27.718V7.12551ZM40.1296 7.12551H49.566V8.65677H41.948V13.0017H49.0492V14.533H41.948V19.2607H49.6234V20.792H40.1296V7.12551ZM51.8308 7.12551H58.2621C59.5637 7.12551 60.5782 7.44453 61.3055 8.08255C62.0456 8.72057 62.4157 9.59467 62.4157 10.7048C62.4157 11.5725 62.2179 12.3127 61.8223 12.9252C61.4395 13.5377 60.8461 13.9524 60.0422 14.1693V14.2076C60.7568 14.3479 61.2545 14.6542 61.5352 15.1263C61.8159 15.5857 62.001 16.2174 62.0903 17.0213C62.103 17.1489 62.1158 17.4105 62.1286 17.806C62.1541 18.2016 62.1732 18.4951 62.186 18.6865C62.2115 18.8652 62.2498 19.1076 62.3008 19.4139C62.3519 19.7201 62.4284 19.9817 62.5305 20.1986C62.6326 20.4156 62.7538 20.6133 62.8942 20.792H60.8653C60.7121 20.6261 60.6164 20.3709 60.5782 20.0264C60.5399 19.6691 60.508 19.2352 60.4825 18.7248C60.4697 18.2016 60.4314 17.7678 60.3676 17.4232C60.3038 17.0276 60.2336 16.7086 60.1571 16.4662C60.0933 16.2237 59.9784 15.9749 59.8125 15.7197C59.6594 15.4517 59.4361 15.2603 59.1426 15.1455C58.8619 15.0179 58.511 14.9541 58.0899 14.9541H53.6492V20.792H51.8308V7.12551ZM57.4391 13.4228C58.4089 13.4228 59.1745 13.2505 59.736 12.906C60.3102 12.5487 60.5973 11.9107 60.5973 10.9919C60.5973 10.2646 60.3931 9.69675 59.9848 9.28842C59.5892 8.86732 58.9831 8.65677 58.1664 8.65677H53.6492V13.4228H57.4391Z" fill="black"/>
<path d="M97.9904 20L96.6539 16.2055H91.4294L90.0929 20H87.7284L92.8126 6.27999H95.2987L100.374 20H97.9904ZM96.0744 14.2802L94.7753 10.5418C94.7255 10.3798 94.6538 10.1524 94.5604 9.85953C94.4669 9.56045 94.3734 9.25826 94.28 8.95296C94.1865 8.64142 94.1086 8.37973 94.0463 8.16789C93.984 8.42335 93.9061 8.70996 93.8127 9.02773C93.7254 9.33926 93.6382 9.63211 93.551 9.90626C93.47 10.1804 93.4077 10.3923 93.3641 10.5418L92.0556 14.2802H96.0744ZM112.907 6.33606V15.1774C112.907 16.1307 112.704 16.9843 112.299 17.7383C111.9 18.4922 111.296 19.0903 110.486 19.5327C109.676 19.9688 108.657 20.1869 107.43 20.1869C105.679 20.1869 104.346 19.729 103.43 18.8131C102.52 17.8909 102.065 16.6666 102.065 15.1401V6.33606H104.308V14.9438C104.308 16.084 104.576 16.9251 105.112 17.4672C105.648 18.0093 106.449 18.2803 107.514 18.2803C108.249 18.2803 108.847 18.1526 109.308 17.8971C109.776 17.6354 110.118 17.2554 110.337 16.7569C110.561 16.2522 110.673 15.6447 110.673 14.9344V6.33606H112.907ZM127.496 13.0372C127.496 14.5762 127.209 15.8628 126.636 16.8971C126.063 17.9252 125.231 18.7009 124.141 19.2243C123.05 19.7414 121.736 20 120.197 20H116.402V6.33606H120.608C122.022 6.33606 123.243 6.59152 124.271 7.10244C125.3 7.60713 126.094 8.35793 126.655 9.35484C127.215 10.3455 127.496 11.573 127.496 13.0372ZM125.159 13.1026C125.159 11.9811 124.982 11.0589 124.627 10.3362C124.278 9.61341 123.761 9.07757 123.075 8.72865C122.396 8.3735 121.558 8.19593 120.561 8.19593H118.645V18.1214H120.234C121.885 18.1214 123.119 17.7009 123.935 16.8597C124.751 16.0186 125.159 14.7662 125.159 13.1026ZM130.44 20V6.33606H132.683V20H130.44ZM148.422 13.1493C148.422 14.2023 148.288 15.1619 148.02 16.0279C147.758 16.8878 147.362 17.6292 146.833 18.2523C146.303 18.8691 145.64 19.3458 144.842 19.6822C144.045 20.0187 143.11 20.1869 142.038 20.1869C140.948 20.1869 140.001 20.0187 139.197 19.6822C138.4 19.3458 137.736 18.866 137.206 18.2429C136.683 17.6199 136.291 16.8753 136.029 16.0092C135.767 15.1432 135.636 14.1836 135.636 13.1306C135.636 11.7225 135.867 10.4951 136.328 9.4483C136.795 8.39531 137.502 7.57909 138.449 6.99963C139.403 6.41395 140.605 6.1211 142.057 6.1211C143.478 6.1211 144.658 6.41083 145.599 6.99029C146.54 7.56974 147.244 8.38597 147.711 9.43895C148.185 10.4857 148.422 11.7225 148.422 13.1493ZM137.991 13.1493C137.991 14.2023 138.135 15.1151 138.421 15.8877C138.708 16.6541 139.147 17.246 139.739 17.6635C140.337 18.0747 141.104 18.2803 142.038 18.2803C142.979 18.2803 143.746 18.0747 144.337 17.6635C144.929 17.246 145.366 16.6541 145.646 15.8877C145.926 15.1151 146.066 14.2023 146.066 13.1493C146.066 11.548 145.746 10.2957 145.104 9.39222C144.468 8.48254 143.453 8.0277 142.057 8.0277C141.122 8.0277 140.353 8.23331 139.749 8.64454C139.15 9.05577 138.708 9.64457 138.421 10.4109C138.135 11.1711 137.991 12.0839 137.991 13.1493Z" fill="black"/>
<path d="M67.4775 4.18457L73.3473 12.8617L66.9926 22.4065H71.4842L75.5421 16.1029L75.6952 10.0034L72.1223 4.18457H67.4775Z" fill="black"/>
<path d="M79.3957 4.18457L75.6952 10.0034L75.5421 16.1029L79.5234 22.4065H84.2958L77.9411 12.8872L83.7854 4.18457H79.3957Z" fill="black"/>
</svg>
