<svg width="188" height="33" viewBox="0 0 188 33" fill="none" xmlns="http://www.w3.org/2000/svg">
<path d="M1.872 7.864H4.152V15.232H13.176V7.864H15.456V25H13.176V17.152H4.152V25H1.872V7.864ZM26.2723 17.992V25H23.9923V17.992L17.3683 7.864H20.0803L25.2163 16.024L30.2323 7.864H32.8243L26.2723 17.992ZM37.0348 16.072H41.4988C43.9948 16.088 45.2428 15.04 45.2428 12.928C45.2428 10.832 43.9948 9.784 41.4988 9.784H37.0348V16.072ZM34.7548 7.864H42.2668C43.9788 7.864 45.2828 8.304 46.1788 9.184C47.0748 10.064 47.5228 11.312 47.5228 12.928C47.5228 14.544 47.0748 15.8 46.1788 16.696C45.2828 17.576 43.9788 18.008 42.2668 17.992H37.0348V25H34.7548V7.864ZM50.3173 7.864H62.1493V9.784H52.5973V15.232H61.5013V17.152H52.5973V23.08H62.2213V25H50.3173V7.864ZM64.9892 7.864H73.0532C74.6852 7.864 75.9572 8.264 76.8692 9.064C77.7972 9.864 78.2612 10.96 78.2612 12.352C78.2612 13.44 78.0132 14.368 77.5172 15.136C77.0372 15.904 76.2932 16.424 75.2852 16.696V16.744C76.1812 16.92 76.8052 17.304 77.1572 17.896C77.5092 18.472 77.7412 19.264 77.8532 20.272C77.8692 20.432 77.8852 20.76 77.9012 21.256C77.9332 21.752 77.9572 22.12 77.9732 22.36C78.0052 22.584 78.0532 22.888 78.1172 23.272C78.1812 23.656 78.2772 23.984 78.4052 24.256C78.5332 24.528 78.6852 24.776 78.8612 25H76.3172C76.1252 24.792 76.0052 24.472 75.9572 24.04C75.9092 23.592 75.8692 23.048 75.8372 22.408C75.8212 21.752 75.7732 21.208 75.6932 20.776C75.6132 20.28 75.5252 19.88 75.4292 19.576C75.3492 19.272 75.2052 18.96 74.9972 18.64C74.8052 18.304 74.5252 18.064 74.1572 17.92C73.8052 17.76 73.3652 17.68 72.8372 17.68H67.2692V25H64.9892V7.864ZM72.0212 15.76C73.2372 15.76 74.1972 15.544 74.9012 15.112C75.6212 14.664 75.9812 13.864 75.9812 12.712C75.9812 11.8 75.7252 11.088 75.2132 10.576C74.7172 10.048 73.9572 9.784 72.9332 9.784H67.2692V15.76H72.0212Z" fill="white"/>
<path d="M122.867 26L121.191 21.2422H114.641L112.965 26H110L116.375 8.79688H119.492L125.855 26H122.867ZM120.465 18.8281L118.836 14.1406C118.773 13.9375 118.684 13.6523 118.566 13.2852C118.449 12.9102 118.332 12.5312 118.215 12.1484C118.098 11.7578 118 11.4297 117.922 11.1641C117.844 11.4844 117.746 11.8438 117.629 12.2422C117.52 12.6328 117.41 13 117.301 13.3438C117.199 13.6875 117.121 13.9531 117.066 14.1406L115.426 18.8281H120.465ZM141.57 8.86719V19.9531C141.57 21.1484 141.316 22.2188 140.809 23.1641C140.309 24.1094 139.551 24.8594 138.535 25.4141C137.52 25.9609 136.242 26.2344 134.703 26.2344C132.508 26.2344 130.836 25.6602 129.688 24.5117C128.547 23.3555 127.977 21.8203 127.977 19.9062V8.86719H130.789V19.6602C130.789 21.0898 131.125 22.1445 131.797 22.8242C132.469 23.5039 133.473 23.8438 134.809 23.8438C135.73 23.8438 136.48 23.6836 137.059 23.3633C137.645 23.0352 138.074 22.5586 138.348 21.9336C138.629 21.3008 138.77 20.5391 138.77 19.6484V8.86719H141.57ZM159.863 17.2695C159.863 19.1992 159.504 20.8125 158.785 22.1094C158.066 23.3984 157.023 24.3711 155.656 25.0273C154.289 25.6758 152.641 26 150.711 26H145.953V8.86719H151.227C153 8.86719 154.531 9.1875 155.82 9.82812C157.109 10.4609 158.105 11.4023 158.809 12.6523C159.512 13.8945 159.863 15.4336 159.863 17.2695ZM156.934 17.3516C156.934 15.9453 156.711 14.7891 156.266 13.8828C155.828 12.9766 155.18 12.3047 154.32 11.8672C153.469 11.4219 152.418 11.1992 151.168 11.1992H148.766V23.6445H150.758C152.828 23.6445 154.375 23.1172 155.398 22.0625C156.422 21.0078 156.934 19.4375 156.934 17.3516ZM163.555 26V8.86719H166.367V26H163.555ZM186.102 17.4102C186.102 18.7305 185.934 19.9336 185.598 21.0195C185.27 22.0977 184.773 23.0273 184.109 23.8086C183.445 24.582 182.613 25.1797 181.613 25.6016C180.613 26.0234 179.441 26.2344 178.098 26.2344C176.73 26.2344 175.543 26.0234 174.535 25.6016C173.535 25.1797 172.703 24.5781 172.039 23.7969C171.383 23.0156 170.891 22.082 170.562 20.9961C170.234 19.9102 170.07 18.707 170.07 17.3867C170.07 15.6211 170.359 14.082 170.938 12.7695C171.523 11.4492 172.41 10.4258 173.598 9.69922C174.793 8.96484 176.301 8.59766 178.121 8.59766C179.902 8.59766 181.383 8.96094 182.562 9.6875C183.742 10.4141 184.625 11.4375 185.211 12.7578C185.805 14.0703 186.102 15.6211 186.102 17.4102ZM173.023 17.4102C173.023 18.7305 173.203 19.875 173.562 20.8438C173.922 21.8047 174.473 22.5469 175.215 23.0703C175.965 23.5859 176.926 23.8438 178.098 23.8438C179.277 23.8438 180.238 23.5859 180.98 23.0703C181.723 22.5469 182.27 21.8047 182.621 20.8438C182.973 19.875 183.148 18.7305 183.148 17.4102C183.148 15.4023 182.746 13.832 181.941 12.6992C181.145 11.5586 179.871 10.9883 178.121 10.9883C176.949 10.9883 175.984 11.2461 175.227 11.7617C174.477 12.2773 173.922 13.0156 173.562 13.9766C173.203 14.9297 173.023 16.0742 173.023 17.4102Z" fill="white"/>
<path d="M84.608 5L91.968 15.88L84 27.848H89.632L94.72 19.944L94.912 12.296L90.432 5H84.608Z" fill="white"/>
<path d="M99.552 5L94.912 12.296L94.72 19.944L99.712 27.848H105.696L97.728 15.912L105.056 5H99.552Z" fill="white"/>
</svg>
