<svg width="26" height="27" viewBox="0 0 26 27" fill="none" xmlns="http://www.w3.org/2000/svg">
<path d="M11.7001 12.8582C11.7001 11.2504 10.8973 8.91062 9.31639 5.99993C9.04499 5.50024 8.33688 5.50651 8.03255 5.97999C7.60928 6.63854 6.97789 7.31397 6.13624 8.00105L5.76286 8.29628L4.90843 8.95603C3.1621 10.3617 2.47334 11.6117 2.62447 13.4589C2.75803 15.0913 3.7357 16.2608 5.41641 16.7965C4.82315 17.4942 4.04366 18.0444 3.06841 18.452C2.68163 18.6136 2.49783 19.0614 2.65789 19.452C2.81795 19.8427 3.26126 20.0283 3.64804 19.8666C5.50054 19.0924 6.83012 17.8502 7.60143 16.1583C7.88983 15.5257 8.12052 14.9018 8.29248 14.287L8.33621 14.1282L8.43888 13.7071L8.5081 13.3703L8.55017 13.1283L8.61753 12.6418C8.66053 12.2567 8.67926 11.8754 8.67359 11.498L8.66983 11.4744C8.68773 11.0733 9.01216 10.7506 9.41497 10.7442C9.83351 10.7375 10.1782 11.0747 10.1848 11.4974C10.2082 12.9877 9.90856 14.5079 9.29051 16.054L9.26459 16.1443C9.24797 16.2364 9.25923 16.3322 9.29809 16.4187C9.4027 16.6518 9.67457 16.7551 9.90532 16.6494L10.0209 16.5904C10.0942 16.5488 10.1601 16.5024 10.2185 16.4513C10.9483 15.8138 11.7001 14.466 11.7001 12.8582ZM20.7922 9.98404C20.6933 8.278 19.2786 6.925 17.5477 6.925H12.3937C11.9873 6.925 11.6977 7.10744 11.6977 7.57262C11.6977 8.0378 11.9572 8.21756 12.3937 8.21756H17.8805L18.037 8.225C18.861 8.30374 19.5055 8.99789 19.5055 9.84256V17L19.498 17.1565C19.4193 17.9805 18.7251 18.625 17.8805 18.625H7.7977C7.40595 18.625 7.14502 18.8754 7.14502 19.2692C7.14502 19.6629 7.40595 19.9195 7.7977 19.925H17.5477L17.7387 19.9195C19.4447 19.8206 20.7977 18.4059 20.7977 16.675V15.611H22.3144L22.4598 15.6013C22.6026 15.5821 22.7365 15.5352 22.856 15.466C23.1798 15.2787 23.3977 14.9286 23.3977 14.5277V12.361L23.3898 12.2294C23.348 11.8843 23.1439 11.5891 22.856 11.4226C22.6967 11.3304 22.5116 11.2777 22.3144 11.2777L20.7977 11.2583V10.175L20.7922 9.98404Z" fill="black"/>
</svg>
