<svg width="27" height="27" viewBox="0 0 27 27" fill="none" xmlns="http://www.w3.org/2000/svg">
<path d="M12.4273 2.84814C12.1742 2.9417 12.0052 3.18194 12.0027 3.4518L11.9264 11.6784L9.09888 9.41401C8.81867 9.18962 8.40961 9.23486 8.18521 9.51507C7.96081 9.79527 8.00605 10.2043 8.28626 10.4287L11.7466 13.1998L8.23545 15.9063C7.95113 16.1254 7.89831 16.5336 8.11747 16.8179C8.33663 17.1022 8.74478 17.1551 9.02911 16.9359L11.8982 14.7244L11.8219 22.951C11.8193 23.2208 11.9839 23.4641 12.2352 23.5624C12.4866 23.6606 12.7725 23.5933 12.9536 23.3933L18.2076 17.5918C18.328 17.4589 18.3881 17.2823 18.3738 17.1036C18.3595 16.925 18.2721 16.7601 18.1322 16.6481L13.8506 13.2194L18.195 9.87062C18.337 9.76119 18.4275 9.59801 18.4451 9.41964C18.4627 9.24128 18.4058 9.06356 18.288 8.92849L13.1425 3.03052C12.9651 2.82716 12.6805 2.75458 12.4273 2.84814ZM13.2015 14.365L16.7804 17.2311L13.1377 21.2535L13.2015 14.365ZM13.2229 12.0618L13.2868 5.17341L16.8543 9.26266L13.2229 12.0618ZM21.4952 8.84907C21.7978 8.65598 22.1996 8.74479 22.3927 9.04742C24.0475 11.641 24.0156 14.9912 22.3113 17.5529C22.1125 17.8517 21.709 17.9328 21.4101 17.734C21.1112 17.5351 21.0301 17.1317 21.229 16.8328C22.648 14.6998 22.6747 11.9062 21.2968 9.74665C21.1037 9.44402 21.1925 9.04216 21.4952 8.84907ZM20.2909 10.5932C20.1081 10.2842 19.7095 10.1819 19.4005 10.3646C19.0915 10.5473 18.9891 10.9459 19.1719 11.2549C19.9047 12.4943 19.8911 14.0521 19.1369 15.2783C18.9488 15.5841 19.0442 15.9844 19.35 16.1725C19.6558 16.3606 20.0561 16.2652 20.2442 15.9594C21.251 14.3224 21.2692 12.2477 20.2909 10.5932Z" fill="black"/>
</svg>
