<svg width="16" height="17" viewBox="0 0 16 17" fill="none" xmlns="http://www.w3.org/2000/svg">
<path d="M5.00033 3.16699C5.18442 3.16699 5.33366 3.31623 5.33366 3.50033V3.83366H10.667V3.50033C10.667 3.31623 10.8162 3.16699 11.0003 3.16699C11.1844 3.16699 11.3337 3.31623 11.3337 3.50033V3.83366H12.0003C12.7367 3.83366 13.3337 4.43061 13.3337 5.16699V12.5003C13.3337 13.2367 12.7367 13.8337 12.0003 13.8337H4.00033C3.26395 13.8337 2.66699 13.2367 2.66699 12.5003V5.16699C2.66699 4.43061 3.26395 3.83366 4.00033 3.83366H4.66699V3.50033C4.66699 3.31623 4.81623 3.16699 5.00033 3.16699ZM4.00033 4.50033C3.63214 4.50033 3.33366 4.7988 3.33366 5.16699V5.83366H12.667V5.16699C12.667 4.7988 12.3685 4.50033 12.0003 4.50033H4.00033ZM12.667 6.50033H3.33366V12.5003C3.33366 12.8685 3.63214 13.167 4.00033 13.167H12.0003C12.3685 13.167 12.667 12.8685 12.667 12.5003V6.50033Z" fill="white"/>
<path d="M10.5 8.08366C10.5 7.85354 10.6865 7.66699 10.9167 7.66699H11.75C11.9801 7.66699 12.1667 7.85354 12.1667 8.08366V8.91699C12.1667 9.14711 11.9801 9.33366 11.75 9.33366H10.9167C10.6865 9.33366 10.5 9.14711 10.5 8.91699V8.08366Z" fill="white"/>
</svg>
