<svg width="6" height="11" viewBox="0 0 6 11" fill="none" xmlns="http://www.w3.org/2000/svg">
<path d="M1.07727 5.49903C1.14923 5.43844 1.19468 5.40435 1.23634 5.36269C2.58087 4.01816 3.92918 2.67364 5.26992 1.32532C5.35324 1.242 5.42142 1.12838 5.45172 1.01476C5.50095 0.840537 5.39491 0.651167 5.23583 0.560269C5.07676 0.469372 4.87603 0.480734 4.72832 0.598144C4.68288 0.63223 4.645 0.673891 4.60334 0.715553C3.1414 2.17749 1.67947 3.63942 0.213748 5.10136C-0.0703063 5.38541 -0.0703068 5.61265 0.20996 5.89292C1.68704 7.37001 3.16413 8.8433 4.63743 10.3204C4.77756 10.4605 4.93284 10.5401 5.13357 10.4795C5.44035 10.3886 5.55776 10.025 5.36461 9.77122C5.33052 9.72577 5.28886 9.68789 5.2472 9.64623C3.90646 8.30549 2.56193 6.96097 1.2212 5.62023C1.18711 5.58236 1.14166 5.55206 1.07727 5.49903Z" fill="white"/>
</svg>
