<svg width="6" height="11" viewBox="0 0 6 11" fill="none" xmlns="http://www.w3.org/2000/svg">
<path d="M4.85046 5.49903C4.7785 5.43844 4.73305 5.40435 4.69139 5.36269C3.34686 4.01816 1.99855 2.67364 0.657814 1.32532C0.574491 1.242 0.506318 1.12838 0.476019 1.01476C0.426783 0.840537 0.532829 0.651167 0.6919 0.560269C0.85097 0.469372 1.0517 0.480734 1.19941 0.598144C1.24486 0.63223 1.28273 0.673891 1.3244 0.715553C2.78633 2.17749 4.24826 3.63942 5.71399 5.10136C5.99804 5.38541 5.99804 5.61265 5.71777 5.89292C4.24069 7.37001 2.76361 8.8433 1.29031 10.3204C1.15018 10.4605 0.994892 10.5401 0.79416 10.4795C0.487381 10.3886 0.369971 10.025 0.563129 9.77122C0.597215 9.72577 0.638877 9.68789 0.680538 9.64623C2.02128 8.30549 3.3658 6.96097 4.70654 5.62023C4.74063 5.58236 4.78607 5.55206 4.85046 5.49903Z" fill="white"/>
</svg>
