<svg width="16" height="17" viewBox="0 0 16 17" fill="none" xmlns="http://www.w3.org/2000/svg">
<path d="M1.72117 1.11602C1.33081 1.11602 0.949755 1.12067 0.568694 1.11602C0.159752 1.11137 -0.109779 0.721016 0.0435745 0.353897C0.131869 0.135484 0.303811 0.0100131 0.540812 0.00536598C1.10776 0.000718906 1.67935 -0.00392817 2.24629 0.00536598C2.53906 0.0100131 2.75282 0.223779 2.78535 0.521192C2.8597 1.19967 2.92941 1.88279 2.99912 2.56126C3.00841 2.63097 3.0177 2.70067 3.03165 2.78897C3.106 2.78897 3.18035 2.78897 3.2547 2.78897C7.11643 2.78897 10.9781 2.78897 14.8399 2.78897C15.4347 2.78897 15.9041 3.1375 15.9877 3.6905C16.0202 3.91356 15.9831 4.15056 15.9366 4.37362C15.5137 6.36722 15.0908 8.36081 14.654 10.3544C14.4774 11.1723 13.8175 11.6928 12.981 11.6928C10.1184 11.6928 7.25119 11.6928 4.38859 11.6928C3.45918 11.6928 2.77141 11.0515 2.67847 10.1313C2.51582 8.52811 2.33923 6.92487 2.17194 5.32627C2.02788 3.95538 1.88382 2.5845 1.7444 1.20896C1.73511 1.19037 1.73046 1.16714 1.72117 1.11602ZM3.13853 3.90891C3.20823 4.54556 3.27329 5.15898 3.33835 5.77704C3.48706 7.1944 3.63577 8.61176 3.78912 10.0291C3.83094 10.4009 4.03541 10.5821 4.41647 10.5821C7.26513 10.5821 10.1091 10.5821 12.9578 10.5821C13.311 10.5821 13.5062 10.4241 13.5805 10.0756C13.9383 8.40728 14.2962 6.73434 14.654 5.06603C14.7376 4.68497 14.8166 4.29927 14.9003 3.90891C10.9735 3.90891 7.06531 3.90891 3.13853 3.90891Z" fill="white"/>
<path d="M3.34277 14.4854C3.34277 13.5653 4.09095 12.8125 5.00643 12.8125C5.92655 12.8125 6.67938 13.5607 6.67938 14.4762C6.67938 15.3963 5.9312 16.1491 5.01572 16.1491C4.10025 16.1537 3.34277 15.4009 3.34277 14.4854ZM5.00643 15.0338C5.30849 15.0338 5.56408 14.7875 5.56408 14.4854C5.56872 14.1834 5.32243 13.9278 5.02037 13.9232C4.71366 13.9185 4.45342 14.1741 4.45342 14.4808C4.45807 14.7829 4.70901 15.0338 5.00643 15.0338Z" fill="white"/>
<path d="M11.6893 16.1489C10.7738 16.1489 10.021 15.396 10.021 14.4759C10.021 13.5604 10.7738 12.8076 11.6939 12.8076C12.6141 12.8076 13.3622 13.5604 13.3622 14.4806C13.3622 15.4007 12.6094 16.1489 11.6893 16.1489ZM11.6893 13.9229C11.3872 13.9229 11.1363 14.1739 11.1363 14.4759C11.1363 14.778 11.3826 15.0289 11.6846 15.0336C11.9914 15.0382 12.2516 14.778 12.2469 14.4713C12.2469 14.1692 11.9914 13.9229 11.6893 13.9229Z" fill="white"/>
</svg>
