<svg width="68" height="68" viewBox="0 0 68 68" fill="none" xmlns="http://www.w3.org/2000/svg">
<path d="M0 6.6078C0.424029 5.84809 1.06007 5.60074 1.9258 5.63607C3.10955 5.68907 4.31096 5.63607 5.49471 5.63607C9.38164 5.65374 12.1202 7.9329 12.8445 11.7315C13.1449 13.3393 13.4806 14.9294 13.7986 16.5195C13.8163 16.6432 13.8869 16.7668 13.94 16.9258C16.3605 16.9258 18.7633 16.9258 21.1661 16.9258C22.0672 16.9258 22.9859 16.9258 23.887 16.9258C24.8234 16.9435 25.4594 17.5266 25.4417 18.3569C25.4241 19.1697 24.8234 19.735 23.9046 19.735C20.9718 19.7527 18.0389 19.735 15.0884 19.735C14.9117 19.735 14.735 19.7527 14.4877 19.7704C14.7527 21.1661 15.0177 22.5089 15.2827 23.8517C16.5018 29.9117 17.7209 35.9895 18.94 42.0496C19.1166 42.933 19.2757 43.8164 19.4877 44.6997C19.523 44.8764 19.8057 45.0001 19.9824 45.1238C20.0707 45.1768 20.1944 45.1238 20.3004 45.1238C31.2545 45.1238 42.2086 45.1238 53.1626 45.1414C53.7457 45.1414 54.0284 45.0178 54.099 44.3994C54.2404 43.3747 54.4877 42.3676 54.6997 41.3605C54.8764 40.5125 55.5655 40.0001 56.3075 40.1238C57.1202 40.2651 57.6326 40.9365 57.4736 41.8375C57.1732 43.4983 56.8376 45.1591 56.4842 46.8199C56.3252 47.5619 55.8305 47.933 55.0708 47.986C54.8588 48.0036 54.6291 47.986 54.4171 47.986C42.8446 47.986 31.2721 47.986 19.6997 47.986C17.4029 47.986 15.106 47.9683 12.8092 47.986C11.7315 47.986 11.0778 48.834 11.3781 49.7881C11.5548 50.3711 11.9788 50.6892 12.5795 50.7775C12.8445 50.8128 13.1096 50.7952 13.3746 50.7952C28.9576 50.7952 44.5584 50.7952 60.1414 50.7952C60.3888 50.7952 60.6361 50.7775 60.8658 50.8128C61.6432 50.8835 62.1733 51.4665 62.1556 52.2263C62.1556 52.986 61.6255 53.5337 60.8305 53.6044C60.6362 53.622 60.4418 53.622 60.2298 53.622C44.523 53.622 28.834 53.622 13.1272 53.6044C12.5265 53.6044 11.8728 53.5513 11.3074 53.357C9.38164 52.7386 8.18023 50.7245 8.49825 48.7987C8.83394 46.6785 10.5301 45.2121 12.7385 45.1591C13.993 45.1238 15.2474 45.1591 16.5901 45.1591C16.3781 44.0284 16.1661 42.986 15.9718 41.9436C14.7703 35.8128 13.5336 29.7351 12.3322 23.6396C11.5548 19.788 10.8127 15.9188 10.0354 12.0672C9.55832 9.75269 7.95054 8.46293 5.58305 8.46293C4.3463 8.46293 3.10955 8.42759 1.87279 8.4806C1.00707 8.51593 0.371025 8.23325 0.0176676 7.40286C-2.69854e-07 7.13784 0 6.87282 0 6.6078Z" fill="black"/>
<path d="M67.8449 19.8233C67.5798 21.0953 67.4385 22.4028 67.0321 23.6219C64.541 30.9717 59.4703 35.4417 51.7494 36.4664C41.8377 37.7915 32.9508 31.0247 31.3077 21.1307C29.6823 11.378 36.6611 1.73135 46.4491 0.229582C56.4491 -1.30752 65.548 5.01758 67.5268 14.8939C67.6505 15.5123 67.7389 16.1483 67.8449 16.7667C67.8449 17.8091 67.8449 18.8162 67.8449 19.8233ZM49.4703 2.80909C40.9014 2.80909 33.9225 9.7879 33.9225 18.3215C33.9225 26.8727 40.9014 33.8339 49.4703 33.8516C58.0215 33.8516 65.0357 26.8727 65.0357 18.3392C65.018 9.80557 58.0215 2.79143 49.4703 2.80909Z" fill="black"/>
<path d="M21.7315 67.7026C21.2191 67.5259 20.6891 67.3669 20.1944 67.1372C17.7032 65.9711 16.4311 63.1796 17.1732 60.5647C17.9152 57.8615 20.3887 56.2008 23.2686 56.4481C25.7598 56.6601 27.9859 58.8686 28.2333 61.3774C28.4983 64.2396 26.8375 66.7131 24.152 67.4729C23.9223 67.5435 23.6926 67.6142 23.4806 67.6849C22.8799 67.7025 22.2969 67.7026 21.7315 67.7026ZM25.4418 62.0488C25.4418 60.4941 24.1697 59.2396 22.6149 59.2396C21.0601 59.2396 19.788 60.5294 19.788 62.0665C19.788 63.6036 21.0955 64.8934 22.6326 64.8934C24.1697 64.8934 25.4418 63.6036 25.4418 62.0488Z" fill="black"/>
<path d="M47.1749 67.7026C46.6625 67.5259 46.1325 67.3669 45.6378 67.1372C43.1466 65.9711 41.8745 63.1796 42.6166 60.5647C43.3586 57.8615 45.8321 56.2008 48.712 56.4481C51.2031 56.6601 53.4293 58.8686 53.6766 61.3774C53.9417 64.2396 52.2809 66.7131 49.5954 67.4729C49.3657 67.5435 49.136 67.6142 48.924 67.6849C48.3233 67.7025 47.7402 67.7026 47.1749 67.7026ZM48.0406 59.2396C46.4858 59.2573 45.2137 60.5471 45.2314 62.0842C45.2491 63.6213 46.5565 64.911 48.0936 64.8934C49.6484 64.8757 50.9028 63.5859 50.9028 62.0488C50.8674 60.4941 49.5954 59.2396 48.0406 59.2396Z" fill="black"/>
<path d="M46.5705 21.9069C48.4963 19.7161 50.3514 17.596 52.2066 15.4758C53.2313 14.2921 54.256 13.126 55.2984 11.9422C55.9875 11.1649 56.7825 11.0588 57.4362 11.6065C58.09 12.1543 58.1076 13.02 57.4539 13.762C54.256 17.437 51.0405 21.0942 47.8249 24.7514C47.1182 25.5642 46.2878 25.5818 45.5281 24.8398C43.7083 23.0377 41.9062 21.2355 40.1041 19.4158C39.4327 18.7444 39.415 17.8786 40.0157 17.3133C40.6164 16.7302 41.4292 16.7656 42.1182 17.4546C43.5846 18.9211 45.0511 20.3875 46.5705 21.9069Z" fill="black"/>
</svg>
