<svg width="15" height="18" viewBox="0 0 15 18" fill="none" xmlns="http://www.w3.org/2000/svg">
<path d="M10.8532 4.67761C11.5442 4.67761 12.2082 4.67761 12.8653 4.67761C13.3802 4.67761 13.4751 4.75891 13.536 5.25348C13.9832 8.6545 14.4303 12.0487 14.8775 15.4498C14.9181 15.7614 14.9859 16.0663 14.9994 16.3779C15.0062 16.5338 14.952 16.7167 14.8639 16.8386C14.7284 17.0283 14.5455 17.1909 14.3626 17.3332C14.2677 17.4077 14.1187 17.4552 13.99 17.4552C9.66078 17.4619 5.33159 17.4619 1.0024 17.4552C0.866903 17.4552 0.69753 17.3874 0.595906 17.2993C-0.0680385 16.7167 -0.0544892 16.7167 0.0606848 15.8698C0.379107 13.4986 0.68398 11.1206 0.995627 8.74258C1.15145 7.55696 1.30727 6.37812 1.4631 5.19251C1.52407 4.75891 1.63247 4.67084 2.07962 4.67084C2.74356 4.67084 3.40073 4.66407 4.06468 4.66407C4.07823 4.66407 4.09177 4.65051 4.1392 4.63696C4.1392 4.41339 4.1392 4.18304 4.1392 3.94592C4.14597 2.08281 5.43999 0.666848 7.28955 0.511025C9.09168 0.355201 10.7854 1.87279 10.8464 3.69525C10.8599 4.00689 10.8532 4.31854 10.8532 4.67761ZM12.7366 5.49738C12.6485 5.49061 12.6147 5.49061 12.5808 5.49061C9.21363 5.49061 5.83971 5.49061 2.47256 5.48383C2.25577 5.48383 2.22867 5.58546 2.20834 5.75483C1.98477 7.50276 1.74765 9.24393 1.5173 10.9919C1.28695 12.7127 1.06338 14.4335 0.839803 16.1544C0.792378 16.4931 0.948202 16.6625 1.28695 16.6625C5.42644 16.6625 9.56593 16.6625 13.7054 16.6625C14.0238 16.6625 14.1932 16.4863 14.1526 16.1747C14.0103 15.0907 13.868 14.0135 13.7257 12.9295C13.4615 10.9444 13.2041 8.9526 12.9398 6.96755C12.8721 6.47297 12.8043 5.98518 12.7366 5.49738ZM4.93187 4.65051C6.66625 4.65051 8.34644 4.65051 10.0402 4.65051C10.0402 4.32532 10.0537 4.01367 10.0402 3.70202C9.99275 2.44866 8.95618 1.40532 7.67572 1.31724C6.41558 1.22917 5.21641 2.14379 5.01994 3.37683C4.95219 3.7901 4.95897 4.21014 4.93187 4.65051Z" fill="white"/>
</svg>
