<svg width="32" height="33" viewBox="0 0 32 33" fill="none" xmlns="http://www.w3.org/2000/svg">
<path fill-rule="evenodd" clip-rule="evenodd" d="M15.9677 0.5C16.2258 0.5 16.6387 0.558786 16.9355 0.630635C17.2194 0.709016 17.5806 0.839651 17.7419 0.931096C17.9032 1.02254 18.5742 1.50589 19.2452 2.0023C19.9097 2.50525 20.5613 2.969 20.6903 3.04085C20.8258 3.10617 21.0839 3.19108 21.2581 3.23027C21.4387 3.26946 22.2065 3.33478 22.9677 3.37397C23.729 3.4197 24.5419 3.48501 24.7742 3.53074C25.0065 3.58299 25.3935 3.72016 25.6452 3.83773C25.9742 4.00102 26.2387 4.20351 26.6129 4.58235C27 4.96772 27.1871 5.22246 27.3484 5.56211C27.4903 5.8691 27.6774 6.52228 27.9161 7.5543C28.1161 8.39689 28.3419 9.23949 28.4258 9.41585C28.5161 9.59874 28.6903 9.86001 28.8258 10.0037C28.9548 10.1474 29.5419 10.7222 30.129 11.2839C30.8968 12.022 31.2581 12.4205 31.4387 12.7209C31.5742 12.9495 31.7548 13.3741 31.8387 13.6615C31.9419 14.0077 32 14.3408 32 14.6413C32 14.8895 31.9548 15.2879 31.9032 15.523C31.8387 15.7908 31.5161 16.542 31.0258 17.5479C30.2774 19.0763 30.2452 19.1678 30.2129 19.638C30.1935 19.9516 30.2452 20.6309 30.3484 21.5192C30.4387 22.2769 30.5161 23.0607 30.5161 23.2436C30.5161 23.433 30.4581 23.8249 30.3871 24.1123C30.3097 24.3997 30.1484 24.8243 30.0194 25.0594C29.8839 25.2945 29.6065 25.6603 29.3871 25.8759C29.1677 26.0914 28.7935 26.3723 28.5484 26.5029C28.2968 26.6336 27.6065 26.9536 27 27.2149C26.3935 27.4762 25.7806 27.757 25.6258 27.8419C25.4774 27.9268 25.2516 28.1032 25.129 28.2273C25.0065 28.3514 24.5161 29.0503 24.0452 29.7819C23.5677 30.5069 23.0581 31.2319 22.8968 31.3887C22.7419 31.5454 22.4387 31.7936 22.2258 31.9308C22.0129 32.068 21.6516 32.2443 21.4194 32.3162C21.1871 32.388 20.7806 32.4664 20.5161 32.486C20.2323 32.5121 19.8581 32.4925 19.6129 32.4403C19.3806 32.4011 18.6258 32.179 17.9355 31.9635C16.729 31.5846 16.6452 31.565 16 31.565C15.3548 31.565 15.271 31.5846 14.0645 31.9635C13.3742 32.179 12.6194 32.4011 12.3871 32.4403C12.1484 32.4925 11.7613 32.5121 11.4839 32.4925C11.2129 32.4729 10.7871 32.3815 10.5161 32.2835C10.2516 32.1921 9.87742 32.0092 9.69032 31.8851C9.50968 31.761 9.23226 31.5324 9.08387 31.3756C8.93548 31.2254 8.43226 30.5069 7.95484 29.7753C7.48387 29.0503 6.99355 28.3514 6.87097 28.2273C6.74839 28.1032 6.52258 27.9268 6.37419 27.8419C6.21935 27.7505 5.6 27.4696 5 27.2149C4.4 26.9536 3.69677 26.6401 3.45161 26.5095C3.16774 26.3592 2.84516 26.111 2.58065 25.8432C2.34839 25.6081 2.07097 25.2358 1.95484 25.0267C1.83871 24.8112 1.69032 24.3997 1.6129 24.1123C1.54194 23.8249 1.48387 23.433 1.48387 23.2436C1.48387 23.0607 1.56129 22.2769 1.65161 21.5127C1.75484 20.6309 1.80645 19.9516 1.7871 19.638C1.75484 19.1678 1.72258 19.0763 0.974194 17.5479C0.548387 16.6661 0.154839 15.7712 0.0967742 15.5557C0.0451613 15.3402 0 14.9548 0 14.7066C0 14.4388 0.0580645 14.0469 0.135484 13.7595C0.206452 13.4917 0.36129 13.0932 0.470968 12.8777C0.6 12.6295 0.890323 12.2702 1.25806 11.8979C1.57419 11.5713 2.18064 10.9769 2.6 10.572C3.19355 9.99717 3.39355 9.7555 3.54839 9.42891C3.67097 9.17417 3.87097 8.47528 4.09032 7.52164C4.32903 6.48962 4.50323 5.87564 4.65161 5.56211C4.79355 5.26818 5.02581 4.93506 5.32258 4.62807C5.69032 4.22963 5.87742 4.09247 6.35484 3.85732C6.67742 3.70709 7.10968 3.55033 7.32258 3.51114C7.53548 3.47848 8.33548 3.41316 9.09677 3.37397C9.85806 3.33478 10.6 3.26947 10.7419 3.23681C10.8839 3.20415 11.1161 3.12577 11.2516 3.06045C11.3935 3.00166 12.0581 2.53138 12.7355 2.0219C13.4129 1.51242 14.0968 1.02254 14.2581 0.931096C14.4194 0.839651 14.7677 0.709016 15.0323 0.637167C15.2968 0.565318 15.7226 0.506532 15.9677 0.5V0.5ZM14.7097 1.87167C14.6194 1.92392 13.9806 2.38768 13.2903 2.90369C12.6 3.4197 11.9161 3.90305 11.7742 3.97489C11.6323 4.04674 11.3097 4.15778 11.0645 4.2231C10.7742 4.30148 10.1032 4.3668 9.16129 4.41905C8.36129 4.45824 7.53548 4.53663 7.32258 4.58888C7.10968 4.64113 6.78064 4.7783 6.5871 4.89587C6.4 5.01344 6.12903 5.23552 5.9871 5.39882C5.84516 5.56211 5.66452 5.83645 5.58065 6.01933C5.49032 6.19569 5.26452 7.03829 5.06452 7.88089C4.80645 9.00435 4.64516 9.54648 4.47097 9.90573C4.28387 10.2976 4.10323 10.5262 3.5871 11.0488C3.22581 11.408 2.63226 11.9959 2.25806 12.3617C1.88387 12.7209 1.50323 13.1455 1.40645 13.3022C1.31613 13.4655 1.1871 13.7725 1.13548 13.9881C1.07742 14.2036 1.03226 14.5237 1.03226 14.7066C1.03226 14.8829 1.07742 15.1965 1.13548 15.3924C1.19355 15.5884 1.56774 16.4114 1.96129 17.2213C2.43226 18.1815 2.70968 18.8281 2.76129 19.0828C2.80645 19.2984 2.83871 19.6511 2.83871 19.8667C2.83871 20.0822 2.76129 20.8726 2.67097 21.6302C2.56129 22.5512 2.51613 23.1521 2.54194 23.4591C2.56774 23.7596 2.63871 24.047 2.76129 24.3083C2.85806 24.5238 3.05806 24.8308 3.2 24.9876C3.33548 25.1443 3.56774 25.3533 3.70968 25.4513C3.85161 25.5493 4.56129 25.8824 5.29032 26.1959C6.01935 26.5095 6.76774 26.8622 6.96129 26.9732C7.14839 27.0908 7.46452 27.3586 7.67097 27.5807C7.87097 27.7962 8.36774 28.5016 8.77419 29.1483C9.18064 29.7884 9.67097 30.4677 9.85806 30.6571C10.0581 30.8661 10.3677 31.0882 10.6258 31.2123C11.0323 31.4148 11.1097 31.4279 11.7097 31.4213C12.3226 31.4213 12.4258 31.4017 13.7742 30.9706L15.1935 30.52H16.8065C19.5742 31.4017 19.6774 31.4213 20.2903 31.4213C20.8903 31.4279 20.9677 31.4148 21.3677 31.2123C21.6323 31.0882 21.9419 30.8661 22.1419 30.6571C22.329 30.4677 22.8194 29.7884 23.2258 29.1483C23.6323 28.5082 24.1161 27.8158 24.2968 27.6133C24.4774 27.4108 24.7677 27.1561 24.9419 27.0385C25.1161 26.9275 25.8129 26.5944 26.4839 26.3004C27.1548 26.0065 27.8774 25.6734 28.0903 25.5624C28.2968 25.4448 28.5935 25.2162 28.7484 25.0398C28.9032 24.87 29.1161 24.5499 29.2258 24.3213C29.3484 24.0666 29.4323 23.7661 29.4581 23.4918C29.4839 23.2109 29.4387 22.5969 29.329 21.6629C29.2387 20.8921 29.1613 20.0822 29.1613 19.8667C29.1613 19.6511 29.1935 19.2984 29.2387 19.0828C29.2903 18.8281 29.5677 18.1815 30.0387 17.2213C30.4323 16.4114 30.8064 15.5884 30.8645 15.3924C30.9226 15.1965 30.9677 14.8829 30.9677 14.7066C30.9677 14.5237 30.9355 14.2493 30.8968 14.0861C30.8581 13.9228 30.7484 13.6354 30.6581 13.4394C30.5355 13.1977 30.2645 12.8777 29.7742 12.3943C29.3806 12.0155 28.7742 11.408 28.4129 11.0488C27.8903 10.5262 27.7161 10.2976 27.529 9.90573C27.3548 9.54648 27.1935 9.00435 26.9355 7.88089C26.7355 7.03829 26.5097 6.19569 26.4194 6.01933C26.3355 5.83645 26.1548 5.56211 26.0129 5.39882C25.871 5.23552 25.6 5.01344 25.4129 4.89587C25.2194 4.7783 24.8903 4.64113 24.6774 4.58888C24.4645 4.53663 23.6516 4.45824 22.871 4.41905C22.0903 4.37333 21.2645 4.30148 21.0323 4.24923C20.8 4.19697 20.4645 4.08593 20.2903 4.00102C20.1097 3.91611 19.4 3.42623 18.7097 2.90369C18.0194 2.38768 17.3484 1.90433 17.2258 1.83901C17.1032 1.77369 16.8516 1.68225 16.6774 1.63653C16.4968 1.58427 16.1806 1.54508 15.9677 1.55161C15.7548 1.55161 15.4194 1.60387 15.2258 1.66918C15.0323 1.72797 14.8 1.82595 14.7097 1.87167ZM16.3871 5.83645C16.6516 5.84951 17.1161 5.89523 17.4194 5.92789C17.7226 5.96708 18.2839 6.07812 18.6774 6.18263C19.071 6.28714 19.6516 6.47656 19.9677 6.60719C20.2839 6.73783 20.7355 6.95338 20.9677 7.07748C21.2 7.20811 21.6323 7.48245 21.9355 7.69146C22.2387 7.89395 22.6968 8.24666 22.9548 8.47528C23.2129 8.70389 23.6258 9.12845 23.8774 9.41585C24.129 9.70325 24.5097 10.2062 24.729 10.5262C24.9484 10.8463 25.271 11.4211 25.4581 11.7999C25.6452 12.1788 25.8645 12.7079 25.9548 12.9757C26.0516 13.2435 26.1806 13.7137 26.2516 14.0207C26.3226 14.3277 26.4129 14.798 26.4516 15.0658C26.4903 15.3336 26.5226 15.9672 26.5226 16.4701C26.529 16.9731 26.4903 17.6328 26.4516 17.9398C26.4129 18.2468 26.2968 18.815 26.1935 19.2135C26.0903 19.6119 25.8774 20.239 25.7226 20.6178C25.5677 20.9967 25.3226 21.4996 25.1871 21.7413C25.0452 21.9895 24.7484 22.4532 24.5161 22.7864C24.2839 23.1129 23.8065 23.6812 23.4516 24.0405C23.0903 24.4062 22.5355 24.8896 22.2065 25.1247C21.8774 25.3599 21.4194 25.6603 21.1742 25.804C20.9355 25.9412 20.4387 26.1894 20.0645 26.3462C19.6903 26.5029 19.071 26.7185 18.6774 26.823C18.2839 26.9275 17.7226 27.0451 17.4194 27.0843C17.1161 27.1234 16.4645 27.1626 15.9677 27.1561C15.471 27.1561 14.8452 27.1234 14.5806 27.0843C14.3161 27.0451 13.8516 26.9536 13.5484 26.8818C13.2452 26.8099 12.7806 26.6793 12.5161 26.5813C12.2516 26.4899 11.729 26.2678 11.3548 26.0784C10.9806 25.8889 10.4129 25.5624 10.0968 25.3403C9.78064 25.1182 9.29032 24.7393 9.01935 24.4911C8.74194 24.2495 8.32258 23.8249 8.09032 23.5571C7.85806 23.2893 7.45806 22.7602 7.2129 22.3814C6.96129 22.0025 6.63871 21.4277 6.48387 21.1077C6.33548 20.7876 6.12258 20.252 6.0129 19.932C5.90968 19.6119 5.76129 19.0567 5.68387 18.704C5.60645 18.3578 5.52258 17.7112 5.49677 17.267C5.46452 16.8294 5.46452 16.1174 5.49677 15.6863C5.52258 15.2552 5.62581 14.5629 5.71613 14.1514C5.8129 13.7399 5.97419 13.1651 6.07742 12.8777C6.18064 12.5903 6.38064 12.12 6.51613 11.8326C6.65161 11.5452 6.96129 11.0031 7.2129 10.6242C7.46452 10.2454 7.85161 9.72284 8.07742 9.46157C8.29677 9.2003 8.71613 8.77574 9 8.52753C9.28387 8.27279 9.81935 7.85476 10.1935 7.60655C10.5677 7.35181 11.1032 7.03829 11.3871 6.90112C11.671 6.76396 12.1355 6.56147 12.4194 6.45696C12.7032 6.35245 13.2839 6.18263 13.7097 6.08465C14.1355 5.99321 14.8 5.8887 15.1935 5.86257C15.5871 5.83645 16.1226 5.82338 16.3871 5.83645ZM14.2581 7.03176C14.0258 7.07748 13.6065 7.17546 13.3226 7.26037C13.0387 7.34528 12.5419 7.52817 12.2258 7.66534C11.9097 7.80904 11.4 8.07031 11.0968 8.2532C10.7935 8.44262 10.3161 8.78227 10.0323 9.01088C9.74839 9.23949 9.34194 9.61833 9.12903 9.84694C8.91613 10.0756 8.6 10.4544 8.41935 10.6895C8.24516 10.9247 7.94839 11.3819 7.75484 11.702C7.56774 12.022 7.30323 12.5838 7.16774 12.943C7.02581 13.3022 6.85806 13.8313 6.7871 14.1187C6.71613 14.4061 6.61935 14.8764 6.58065 15.1638C6.53548 15.4512 6.50323 16.0521 6.50323 16.5028C6.50323 16.9535 6.53548 17.5544 6.58065 17.8418C6.61935 18.1292 6.71613 18.5995 6.7871 18.8869C6.85806 19.1743 7.02581 19.7034 7.16774 20.0626C7.30323 20.4219 7.56774 20.9836 7.75484 21.3036C7.94839 21.6237 8.24516 22.0809 8.41935 22.3161C8.6 22.5512 8.91613 22.9301 9.12903 23.1587C9.34194 23.3873 9.74839 23.7661 10.0323 23.9947C10.3161 24.2233 10.7935 24.563 11.0968 24.7524C11.4 24.9353 11.9097 25.1966 12.2258 25.3403C12.5419 25.4774 13.0516 25.6669 13.3548 25.7518C13.6581 25.8432 14.1806 25.9608 14.5161 26.013C14.8516 26.0718 15.5226 26.111 16 26.111C16.4774 26.111 17.1484 26.0718 17.4839 26.013C17.8194 25.9608 18.3419 25.8432 18.6452 25.7518C18.9484 25.6669 19.4387 25.484 19.7419 25.3599C20.0452 25.2292 20.5548 24.9614 20.871 24.772C21.1871 24.5761 21.6839 24.2233 21.9677 23.9947C22.2516 23.7661 22.6581 23.3873 22.871 23.1587C23.0839 22.9301 23.4 22.5512 23.5806 22.3161C23.7548 22.0809 24.0516 21.6237 24.2452 21.3036C24.4323 20.9836 24.6968 20.4219 24.8323 20.0626C24.9742 19.7034 25.1419 19.1743 25.2129 18.8869C25.2839 18.5995 25.3806 18.1292 25.4194 17.8418C25.4645 17.5544 25.4968 16.9339 25.4968 16.4701C25.4968 15.9999 25.4516 15.3402 25.3935 15.0005C25.3419 14.6608 25.2258 14.1318 25.1355 13.8248C25.0516 13.5178 24.871 13.0214 24.7484 12.7144C24.6194 12.4074 24.3548 11.8914 24.1677 11.5713C23.9742 11.2513 23.6258 10.7483 23.4 10.4609C23.1742 10.1735 22.7871 9.74897 22.5419 9.52036C22.2968 9.28521 21.8645 8.92597 21.5806 8.71042C21.2968 8.5014 20.8323 8.19441 20.5484 8.04418C20.2645 7.88742 19.8129 7.67187 19.5484 7.56083C19.2839 7.45632 18.7871 7.29303 18.4516 7.20158C18.1161 7.11014 17.6065 7.01216 17.3226 6.97297C17.0387 6.93378 16.6065 6.89459 16.3548 6.88153C16.1032 6.86846 15.6258 6.88153 15.2903 6.90765C14.9548 6.93378 14.4903 6.98603 14.2581 7.03176ZM20.4839 11.6889C20.8 11.7085 21.0323 11.7607 21.2581 11.8783C21.4323 11.9698 21.6903 12.1723 21.8258 12.329C21.9613 12.4858 22.129 12.7732 22.1935 12.9561C22.2645 13.1455 22.3226 13.4263 22.3226 13.5766C22.3226 13.7333 22.2839 14.0011 22.2258 14.184C22.1742 14.3604 22.0645 14.6021 21.9871 14.7131C21.9032 14.8241 20.4903 16.3003 18.8387 17.9855C16.0258 20.8595 15.8129 21.062 15.4645 21.1991C15.2645 21.271 14.9613 21.3363 14.7871 21.3363C14.6194 21.3363 14.3226 21.2906 14.129 21.2318C13.7935 21.1338 13.6774 21.0293 11.8839 19.2265C10.529 17.8549 9.96129 17.2344 9.86452 17.0253C9.7871 16.8621 9.70968 16.5681 9.69032 16.3722C9.67097 16.1174 9.69677 15.8954 9.78065 15.621C9.86452 15.3597 10 15.1311 10.1935 14.9156C10.3548 14.7392 10.6 14.5302 10.7419 14.4518C10.9548 14.3408 11.1161 14.3147 11.6129 14.3147C12.1613 14.3147 12.2581 14.3343 12.5161 14.491C12.6774 14.589 13.2258 15.0919 13.7419 15.6145C14.2581 16.1436 14.7032 16.5681 14.7419 16.5681C14.7742 16.5681 15.7613 15.5818 16.9355 14.3669C18.1032 13.1585 19.1677 12.1004 19.2903 12.0155C19.4129 11.9306 19.6323 11.8195 19.7742 11.7673C19.9419 11.702 20.1871 11.6758 20.4839 11.6889ZM17.4194 15.3663C15.2516 17.5544 14.9097 17.8745 14.7419 17.8745C14.5806 17.8745 14.3742 17.6916 13.3871 16.7053C12.7484 16.0652 12.1548 15.4904 12.0645 15.4316C11.9742 15.3728 11.7742 15.3271 11.6129 15.3271C11.4516 15.3271 11.2387 15.3793 11.129 15.4447C11.0194 15.51 10.8839 15.6733 10.8194 15.8039C10.7613 15.9345 10.7097 16.1174 10.7097 16.2089C10.7097 16.3003 10.7548 16.4701 10.8065 16.5877C10.8581 16.6988 11.6645 17.5675 12.5935 18.5081C13.9871 19.9059 14.329 20.2194 14.5161 20.2586C14.6387 20.2847 14.8452 20.2847 14.9677 20.2586C15.1355 20.2194 15.3613 20.043 15.8323 19.5793C16.1806 19.2331 17.5355 17.8483 18.8387 16.5028C20.7806 14.5041 21.2194 14.0142 21.2581 13.8248C21.2839 13.7007 21.2903 13.5178 21.2645 13.4198C21.2452 13.3153 21.129 13.1324 21.0129 13.0018C20.8387 12.8058 20.7548 12.7601 20.4839 12.7405C20.3032 12.7209 20.1032 12.747 20.0323 12.7862C19.9613 12.8254 18.7871 13.9881 17.4194 15.3663Z" fill="white"/>
</svg>
