<svg width="18" height="15" viewBox="0 0 18 15" fill="none" xmlns="http://www.w3.org/2000/svg">
<path d="M15.0288 10.8689C16.944 9.15024 18 7.2 18 7.2C18 7.2 14.625 0.967267 9 0.967267C7.8577 0.967267 6.80818 1.2243 5.86088 1.63398L6.72811 2.50755C7.43606 2.25141 8.19496 2.10049 9 2.10049C11.3843 2.10049 13.3638 3.4243 14.8139 4.88494C15.5292 5.60544 16.0851 6.3296 16.4618 6.8741C16.5436 6.99236 16.6167 7.10165 16.6807 7.2C16.6167 7.29835 16.5436 7.40764 16.4618 7.52589C16.0851 8.07039 15.5292 8.79455 14.8139 9.51505C14.6285 9.70183 14.4344 9.88638 14.2319 10.0662L15.0288 10.8689Z" fill="#CFCFCF"/>
<path d="M12.7097 8.53283C12.8572 8.11628 12.9375 7.66759 12.9375 7.2C12.9375 5.00948 11.1746 3.23372 9 3.23372C8.5358 3.23372 8.09037 3.31463 7.67684 3.46322L8.60195 4.39509C8.73199 4.37654 8.86488 4.36694 9 4.36694C10.5533 4.36694 11.8125 5.63534 11.8125 7.2C11.8125 7.33611 11.803 7.46997 11.7846 7.60096L12.7097 8.53283Z" fill="#CFCFCF"/>
<path d="M9.39808 10.0049L10.3232 10.9368C9.90965 11.0854 9.46421 11.1663 9 11.1663C6.82538 11.1663 5.0625 9.39052 5.0625 7.2C5.0625 6.7324 5.14283 6.2837 5.29035 5.86714L6.21545 6.79901C6.19703 6.93 6.1875 7.06388 6.1875 7.2C6.1875 8.76466 7.4467 10.0331 9 10.0331C9.13513 10.0331 9.26803 10.0235 9.39808 10.0049Z" fill="#CFCFCF"/>
<path d="M3.76812 4.33379C3.56564 4.51361 3.37155 4.69816 3.18612 4.88494C2.47085 5.60544 1.91493 6.3296 1.53818 6.8741C1.45636 6.99236 1.38333 7.10165 1.31929 7.2C1.38333 7.29835 1.45636 7.40764 1.53818 7.52589C1.91493 8.07039 2.47085 8.79455 3.18612 9.51505C4.63616 10.9757 6.6157 12.2995 9 12.2995C9.80505 12.2995 10.564 12.1486 11.2719 11.8924L12.1391 12.766C11.1918 13.1757 10.1423 13.4327 9 13.4327C3.375 13.4327 0 7.2 0 7.2C0 7.2 1.05606 5.24974 2.97126 3.5311L3.76812 4.33379Z" fill="#CFCFCF"/>
<path d="M15.3523 14.4L1.85225 0.80131L2.64775 0L16.1477 13.5987L15.3523 14.4Z" fill="#CFCFCF"/>
</svg>
