<svg width="24" height="24" viewBox="0 0 24 24" fill="none" xmlns="http://www.w3.org/2000/svg">
<g clip-path="url(#clip0_513_1411)">
<path d="M12.1809 4.90815C13.8729 4.90693 15.5107 5.4956 16.8039 6.56981L20.4253 3.17336C19.0348 1.91097 17.3646 0.98505 15.5473 0.469092C13.73 -0.0468662 11.8155 -0.138665 9.95584 0.200981C8.09618 0.540628 6.34252 1.30237 4.83403 2.42575C3.32554 3.54914 2.10375 5.00324 1.26562 6.67266L5.35013 9.77198C5.82634 8.35808 6.74227 7.12753 7.96821 6.2546C9.19414 5.38168 10.6679 4.91062 12.1809 4.90815Z" fill="#D94F3D"/>
<path d="M4.98529 11.9972C4.98529 11.2407 5.11065 10.4887 5.35439 9.77217L1.26989 6.67285C0.434656 8.32727 0 10.1497 0 11.9972C0 13.8448 0.434656 15.6672 1.26989 17.3216L5.35439 14.2223C5.11102 13.5049 4.9864 12.7536 4.98529 11.9972Z" fill="#F2C042"/>
<path d="M23.8697 9.81657H12.2383V14.7238H18.8287C18.4367 16.1113 17.5386 17.3076 16.3065 18.0837L20.3574 21.1602C22.9481 18.8723 24.4686 15.1524 23.8697 9.81657Z" fill="#5085ED"/>
<path d="M16.3037 18.0842C15.0511 18.7901 13.6231 19.1373 12.1809 19.0865C10.6677 19.0843 9.19368 18.6133 7.96752 17.7404C6.74135 16.8674 5.82525 15.6367 5.34897 14.2227L1.26562 17.322C2.27422 19.3241 3.83017 21.0095 5.75848 22.1886C7.68679 23.3676 9.91097 23.9936 12.1809 23.996C15.1673 24.076 18.0784 23.0646 20.3545 21.1596L16.3037 18.0854V18.0842Z" fill="#57A75C"/>
</g>
<defs>
<clipPath id="clip0_513_1411">
<rect width="24" height="24" fill="white"/>
</clipPath>
</defs>
</svg>
