<svg width="59" height="64" viewBox="0 0 59 64" fill="none" xmlns="http://www.w3.org/2000/svg">
<path d="M30.3295 63.737C28.9834 63.4557 27.6976 63.0338 26.5726 62.19C23.8202 60.1408 22.6951 56.645 23.8001 53.4506C24.9251 50.216 27.9789 48.1065 31.4546 48.1869C34.7494 48.2672 37.7228 50.5777 38.6671 53.8122C38.7273 53.9931 38.7675 54.1739 38.8278 54.3547C41.8012 54.9574 47.1855 52.2653 48.9535 49.2316C48.411 49.2316 47.9288 49.2316 47.4467 49.2316C46.3417 49.2115 45.7791 48.649 45.7791 47.5239C45.7791 41.1753 45.7791 34.8266 45.7791 28.478C45.7791 28.0762 45.8595 27.6543 46.0001 27.2726C46.2211 26.69 46.6631 26.3484 47.3462 26.3685C47.8485 26.3886 48.3306 26.3685 48.7927 26.3685C48.853 26.2681 48.8932 26.248 48.8932 26.2078C49.1343 21.4865 48.8731 16.8456 46.2613 12.7069C42.1227 6.11722 36.1558 2.80228 28.3606 3.26436C19.0587 3.80681 11.6654 10.7581 10.4599 19.9395C10.1786 22.029 10.2791 24.1586 10.1987 26.3685C10.7814 26.3685 11.2435 26.3685 11.7055 26.3685C12.6699 26.3685 13.2324 26.8708 13.373 27.8351C13.4132 28.1164 13.4132 28.4178 13.4132 28.699C13.4132 34.9472 13.4132 41.1954 13.4132 47.4234C13.4132 48.6891 12.8909 49.2115 11.6453 49.2115C9.71657 49.2115 7.78787 49.2718 5.85918 49.1713C2.70496 49.0307 0.133366 46.4993 0.0530041 43.3651C-0.0273582 39.7287 -0.00726758 36.1124 0.0530041 32.4761C0.113276 29.4223 2.68487 26.2078 6.46189 26.3685C6.64271 26.3685 6.82353 26.3685 7.12488 26.3685C7.12488 26.0672 7.12488 25.806 7.12488 25.5448C7.14497 23.1138 7.00434 20.6829 7.5267 18.2921C9.17412 10.5171 13.594 4.8917 20.907 1.79775C33.1623 -3.38562 46.9645 3.06346 51.0429 15.7004C51.8465 18.1716 52.1278 20.7231 52.1077 23.2947C52.1077 24.2791 52.1077 25.2836 52.1077 26.3283C53.3734 26.3484 54.4784 26.7101 55.4226 27.4936C57.2308 28.9602 58.2755 30.8889 58.3558 33.1792C58.4764 36.7152 58.4563 40.2712 58.396 43.8272C58.3558 46.4993 56.6883 48.428 54.0364 48.87C53.1122 49.0307 52.6099 49.4325 52.1278 50.1758C49.7169 53.9529 46.3015 56.3035 41.9218 57.1875C40.9373 57.3884 39.9127 57.4486 38.8479 57.5692C38.3858 60.0001 36.9795 61.7882 34.7293 62.853C33.9056 63.2548 32.9814 63.4356 32.0975 63.7169C31.4947 63.737 30.9121 63.737 30.3295 63.737ZM10.259 29.5026C9.03349 29.5026 7.86823 29.5026 6.70298 29.5026C4.55329 29.5026 3.20722 30.8085 3.18713 32.9582C3.16704 36.3134 3.16704 39.6685 3.18713 43.0236C3.18713 44.7112 4.49302 46.0171 6.18063 46.0573C7.40615 46.0774 8.63168 46.0573 9.8572 46.0573C9.99783 46.0573 10.1385 46.0171 10.259 45.997C10.259 40.5123 10.259 35.0476 10.259 29.5026ZM48.9735 46.0573C50.0183 46.0573 51.0429 46.0573 52.0474 46.0573C52.3086 46.0573 52.5898 46.0573 52.851 46.0171C54.3779 45.7961 55.2217 45.0126 55.2418 43.7067C55.2619 40.3114 55.2619 36.9161 55.2418 33.5007C55.2217 32.3153 54.7797 31.2103 53.956 30.3465C53.5743 29.9647 53.0519 29.583 52.5497 29.5227C51.3844 29.4022 50.1991 29.4826 48.9936 29.4826C48.9735 35.0476 48.9735 40.5324 48.9735 46.0573ZM35.8343 56.0624C35.8142 53.3301 33.8253 51.2808 31.1733 51.2808C28.6218 51.2808 26.5123 53.3903 26.5324 55.9017C26.5726 58.4532 28.7825 60.6229 31.3139 60.5828C33.8052 60.5426 35.8343 58.5134 35.8343 56.0624Z" fill="white"/>
</svg>
