<svg width="78" height="79" viewBox="0 0 78 79" fill="none" xmlns="http://www.w3.org/2000/svg">
<path fill-rule="evenodd" clip-rule="evenodd" d="M77.5751 55.3571C77.5751 62.0421 75.2499 67.8551 71.1808 71.9242C67.1117 75.9933 61.2987 78.0279 54.9044 78.0279H23.2235C16.8292 78.0279 11.0162 75.9933 6.94704 71.9242C2.58729 67.8551 0.552734 62.0421 0.552734 55.3571V23.3856C0.552734 10.0157 9.5629 0.714844 23.2235 0.714844H55.195C61.88 0.714844 67.4023 3.04005 71.4714 7.10915C75.5405 11.1783 77.5751 16.7006 77.5751 23.3856V55.3571ZM54.9039 7.69118H22.9324C18.282 7.69118 14.2129 9.14443 11.597 11.7603C8.98117 14.3761 7.52792 18.4452 7.52792 23.0956V55.0672C7.52792 59.7176 8.98117 63.7867 11.8877 66.6932C14.7942 69.3091 18.5726 70.7623 23.223 70.7623H54.9039C59.5543 70.7623 63.6235 69.3091 66.2393 66.6932C69.1458 64.0774 70.5991 60.0082 70.5991 55.3578V23.3863C70.5991 18.7359 69.1458 14.9574 66.53 12.0509C63.6235 9.14443 59.845 7.69118 54.9039 7.69118Z" fill="white"/>
<path fill-rule="evenodd" clip-rule="evenodd" d="M19.1539 39.0814C19.1539 49.8355 27.8735 58.8456 38.9182 58.8456C49.9629 58.8456 58.973 50.1261 58.973 39.0814C58.973 28.0367 49.6722 19.3172 38.9182 19.3172C28.1641 19.3172 19.1539 28.0367 19.1539 39.0814ZM38.918 51.8687C45.9809 51.8687 51.7066 46.143 51.7066 39.0801C51.7066 32.0171 45.9809 26.2914 38.918 26.2914C31.855 26.2914 26.1293 32.0171 26.1293 39.0801C26.1293 46.143 31.855 51.8687 38.918 51.8687Z" fill="white"/>
<path d="M54.9039 18.4452C54.9039 21.0611 56.9385 23.0956 59.5544 23.0956C62.1702 23.0956 64.2048 21.0611 64.2048 18.4452C64.2048 15.8294 62.1702 13.7948 59.5544 13.7948C56.9385 13.7948 54.9039 15.8294 54.9039 18.4452Z" fill="white"/>
</svg>
