<svg width="20" height="16" viewBox="0 0 20 16" fill="none" xmlns="http://www.w3.org/2000/svg">
<path d="M18.5708 9C19.1231 9 19.5708 8.55228 19.5708 8C19.5708 7.44772 19.1231 7 18.5708 7L18.5708 9ZM1.0895 7.29289C0.698977 7.68342 0.698976 8.31658 1.0895 8.70711L7.45346 15.0711C7.84399 15.4616 8.47715 15.4616 8.86768 15.0711C9.2582 14.6805 9.2582 14.0474 8.86768 13.6569L3.21082 8L8.86768 2.34314C9.2582 1.95262 9.2582 1.31946 8.86768 0.928931C8.47715 0.538407 7.84399 0.538407 7.45346 0.928931L1.0895 7.29289ZM18.5708 7L1.79661 7L1.79661 9L18.5708 9L18.5708 7Z" fill="black"/>
</svg>
