<svg width="17" height="17" viewBox="0 0 17 17" fill="none" xmlns="http://www.w3.org/2000/svg">
<path d="M15.608 11.875V5.125C15.608 4.5025 15.072 4 14.408 4H3.2C2.536 4 2 4.5025 2 5.125V11.875C2 12.4975 2.536 13 3.2 13H14.408C15.072 13 15.608 12.4975 15.608 11.875ZM14.56 5.0425C14.824 5.29 14.68 5.545 14.536 5.6725L11.288 8.4625L14.408 11.5075C14.504 11.6125 14.568 11.7775 14.456 11.89C14.352 12.01 14.112 12.0025 14.008 11.9275L10.512 9.13L8.8 10.5925L7.096 9.13L3.6 11.9275C3.496 12.0025 3.256 12.01 3.152 11.89C3.04 11.7775 3.104 11.6125 3.2 11.5075L6.32 8.4625L3.072 5.6725C2.928 5.545 2.784 5.29 3.048 5.0425C3.312 4.795 3.584 4.915 3.808 5.095L8.8 8.875L13.8 5.095C14.024 4.915 14.296 4.795 14.56 5.0425Z" fill="white"/>
</svg>
