<svg width="26" height="27" viewBox="0 0 26 27" fill="none" xmlns="http://www.w3.org/2000/svg">
<path d="M13.0323 17.3589C15.1787 17.3667 16.925 15.633 16.9328 13.4867L16.9563 7.00937C16.9641 4.86298 15.2304 3.11667 13.084 3.10888C10.9376 3.10108 9.19132 4.83476 9.18353 6.98115L9.16001 13.4584C9.15221 15.6048 10.8859 17.3511 13.0323 17.3589ZM13.037 16.0635C11.6061 16.0583 10.4503 14.8941 10.4555 13.4631L10.479 6.98585C10.4842 5.55493 11.6484 4.39914 13.0793 4.40434C14.5102 4.40953 15.666 5.57374 15.6608 7.00467L15.6373 13.482C15.6321 14.9129 14.4679 16.0687 13.037 16.0635ZM6.57144 12.8013C6.92917 12.8026 7.21812 13.0936 7.21682 13.4514C7.20513 16.671 9.80564 19.2904 13.0252 19.3021C16.2448 19.3138 18.8643 16.7133 18.876 13.4937C18.8773 13.136 19.1683 12.847 19.526 12.8483C19.8838 12.8496 20.1727 13.1407 20.1714 13.4984C20.1579 17.2151 17.301 20.2568 13.6684 20.5709L13.6588 23.1909C13.6575 23.5486 13.3665 23.8375 13.0088 23.8362C12.651 23.8349 12.3621 23.5439 12.3634 23.1861L12.3729 20.5662C8.74258 20.2257 5.90786 17.1634 5.92136 13.4467C5.92265 13.0889 6.21371 12.8 6.57144 12.8013Z" fill="black"/>
</svg>
