<svg width="70" height="70" viewBox="0 0 70 70" fill="none" xmlns="http://www.w3.org/2000/svg">
<path d="M37.8637 60.6031C35.6179 61.9015 33.372 63.1823 31.1437 64.4807C30.6174 64.779 30.0559 65.0597 29.5471 65.4106C28.9505 65.8141 28.4066 65.7791 27.7749 65.4106C22.7218 62.4629 17.651 59.5503 12.5803 56.6202C8.72024 54.3919 4.87772 52.146 1.01765 49.9528C0.263187 49.5317 0 49.0053 0 48.1631C0.0175458 37.9339 0.0175458 27.7223 0 17.4931C0 16.6509 0.280733 16.1246 1.01765 15.7035C9.91335 10.5976 18.7915 5.47428 27.6521 0.315824C28.3715 -0.105275 28.933 -0.105275 29.6523 0.315824C38.548 5.47428 47.4437 10.6152 56.357 15.7386C57.0237 16.1246 57.3045 16.5983 57.3045 17.3703C57.2869 23.0902 57.3045 28.8277 57.2869 34.5476C57.2869 35.1442 57.4448 35.4775 57.9712 35.7934C63.7087 39.1621 66.7792 46.0401 65.5159 52.5846C64.2175 59.2696 58.866 64.4982 52.2513 65.4983C46.8647 66.323 42.2151 64.7614 38.2673 60.9891C38.1269 60.8662 38.0041 60.7434 37.8637 60.6031ZM55.1463 34.302C55.1639 34.2318 55.1814 34.1441 55.1814 34.0563C55.1814 28.6873 55.1814 23.3008 55.1639 17.9318C55.1639 17.7037 54.9358 17.3878 54.7077 17.2475C52.2864 15.8263 49.8475 14.4402 47.4262 13.019C47.0928 12.826 46.8472 12.8435 46.5314 13.0365C38.0217 17.9669 29.4944 22.8797 20.9672 27.7925C20.5987 28.003 20.4408 28.2311 20.4584 28.6698C20.4759 30.6875 20.4759 32.7053 20.4584 34.7231C20.4584 36.0214 19.6863 36.4601 18.5634 35.8109C15.7385 34.1791 12.9137 32.5298 10.0713 30.9156C9.43962 30.5472 9.19398 30.091 9.19398 29.3716C9.22907 27.1257 9.22907 24.8974 9.19398 22.6516C9.17643 21.8971 9.47471 21.4409 10.1239 21.0725C18.4055 16.3176 26.6696 11.5276 34.9512 6.75512C35.1792 6.61475 35.4249 6.47439 35.7232 6.28138C33.4071 4.9479 31.1788 3.63197 28.9154 2.36868C28.74 2.2634 28.3715 2.36868 28.1609 2.4915C19.6513 7.38676 11.1591 12.2996 2.64941 17.1948C2.2634 17.4229 2.10549 17.6686 2.10549 18.1248C2.12304 27.9153 2.12304 37.6883 2.10549 47.4788C2.10549 47.9701 2.2634 48.2158 2.66695 48.4614C11.1766 53.3567 19.6688 58.2695 28.1785 63.1823C28.5294 63.3928 28.7926 63.3753 29.126 63.1647C31.2315 61.9365 33.3369 60.7259 35.4424 59.5152C35.7758 59.3222 36.1092 59.1117 36.4075 58.9362C32.6 52.7426 32.1965 46.4787 36.3548 40.4956C40.9869 33.8984 47.4964 32.214 55.1463 34.302ZM49.6545 35.5653C41.8993 35.5653 35.6354 41.8291 35.6354 49.5843C35.6354 57.322 41.9519 63.6209 49.6545 63.6034C57.3571 63.5858 63.6209 57.3045 63.656 49.6019C63.7087 41.8817 57.3922 35.5653 49.6545 35.5653ZM44.8119 11.5977C44.7066 11.51 44.654 11.4398 44.5838 11.3872C42.4607 10.159 40.3377 8.91325 38.1971 7.72013C38.0217 7.61486 37.6532 7.6675 37.4426 7.79032C28.8979 12.7031 20.3706 17.6335 11.8258 22.5639C11.4925 22.7569 11.3346 22.9674 11.3346 23.3885C11.3521 25.1431 11.3521 26.8976 11.3346 28.6522C11.3346 29.0558 11.4574 29.2839 11.8083 29.4769C13.8085 30.6174 15.7912 31.7754 17.7914 32.9158C17.9318 33.0036 18.0897 33.0562 18.3353 33.1615C18.3353 32.8457 18.3353 32.6 18.3353 32.3719C18.3353 30.8805 18.3529 29.3892 18.3353 27.8978C18.3178 27.1784 18.5985 26.7397 19.2302 26.3713C25.9326 22.5288 32.6351 18.6511 39.32 14.7735C41.1448 13.7208 42.952 12.668 44.8119 11.5977Z" fill="white"/>
<path d="M44.6542 52.1627C46.8124 52.1627 48.988 52.1627 51.1462 52.1627C51.7427 52.1627 52.3393 52.1627 52.9183 52.075C55.4624 51.7065 57.3574 49.408 57.217 46.9165C57.0591 44.1794 54.9711 42.0914 52.3042 42.0563C49.8478 42.0212 47.3914 42.0563 44.935 42.0388C44.6893 42.0388 44.4437 42.0388 44.2156 41.9686C43.6892 41.8107 43.4085 41.4247 43.4611 40.8808C43.5138 40.3369 43.8296 40.0035 44.3911 39.9333C44.4788 39.9158 44.5665 39.9158 44.6542 39.9158C47.1984 39.9158 49.7425 39.8807 52.2866 39.9333C56.2695 40.021 59.3751 43.2144 59.3576 47.1095C59.34 50.9871 56.252 54.1629 52.3042 54.2682C50.0057 54.3384 47.7072 54.2857 45.3912 54.2857C45.1455 54.2857 44.9174 54.2857 44.549 54.2857C44.742 54.4612 44.8472 54.584 44.9701 54.6717C46.1632 55.5139 47.3738 56.3561 48.5845 57.1983C49.2688 57.6896 49.4267 58.2686 49.0231 58.8125C48.6371 59.3389 48.023 59.3915 47.3563 58.9178C45.128 57.3562 42.8997 55.8122 40.6713 54.2506C39.759 53.6014 39.7414 52.847 40.6713 52.1978C42.9172 50.6187 45.1631 49.0571 47.4089 47.478C48.0581 47.0393 48.6547 47.092 49.0407 47.6008C49.4442 48.1447 49.2863 48.7413 48.6196 49.215C47.3036 50.1449 45.9702 51.0749 44.6542 52.0048C44.6191 52.0574 44.6367 52.1101 44.6542 52.1627Z" fill="white"/>
</svg>
