<svg width="125" height="46" viewBox="0 0 125 46" fill="none" xmlns="http://www.w3.org/2000/svg">
<rect width="125" height="45.0736" rx="5" fill="#003087"/>
<path d="M29.8881 13C29.6823 13 29.5075 13.1494 29.4753 13.3529L27.0931 28.4606C27.0844 28.5158 27.0878 28.5722 27.103 28.626C27.1182 28.6797 27.1449 28.7295 27.1812 28.772C27.2175 28.8144 27.2626 28.8485 27.3133 28.8719C27.3641 28.8953 27.4193 28.9074 27.4751 28.9074H30.3003C30.5058 28.9074 30.6809 28.7577 30.7131 28.5545L31.4129 24.118C31.4448 23.9149 31.6199 23.7651 31.8257 23.7651H34.3943C37.3955 23.7651 39.9431 21.5754 40.4085 18.6082C40.8777 15.6158 38.54 13.0065 35.2267 13H29.8881ZM32.6345 16.3726H34.6896C36.3815 16.3726 36.9325 17.371 36.7583 18.475C36.5841 19.5814 35.7284 20.3963 34.0917 20.3963H31.9999L32.6345 16.3726ZM46.1545 17.3996C45.4412 17.4023 44.6203 17.5484 43.6988 17.9323C41.5849 18.8134 40.5697 20.6343 40.1386 21.9619C40.1386 21.9619 38.7665 26.0122 41.8666 28.2374C41.8666 28.2374 44.7417 30.3796 47.9782 28.1054L47.9224 28.4606C47.9137 28.5158 47.9171 28.5721 47.9323 28.6258C47.9475 28.6795 47.9741 28.7293 48.0103 28.7717C48.0466 28.8142 48.0916 28.8483 48.1422 28.8717C48.1929 28.8951 48.248 28.9073 48.3039 28.9074H50.9858C51.1916 28.9074 51.3665 28.7577 51.3986 28.5545L53.03 18.2087C53.0388 18.1535 53.0355 18.0971 53.0203 18.0433C53.0052 17.9895 52.9786 17.9396 52.9423 17.8971C52.9061 17.8546 52.861 17.8205 52.8103 17.797C52.7596 17.7736 52.7044 17.7614 52.6485 17.7613H49.9666C49.7608 17.7613 49.5857 17.911 49.5538 18.1142L49.4661 18.6711C49.4661 18.6711 48.295 17.3916 46.1545 17.3996ZM46.2422 20.6674C46.5502 20.6674 46.8319 20.7099 47.0847 20.7911C48.2419 21.1626 48.898 22.2743 48.7081 23.4793C48.4739 24.9631 47.2571 26.0556 45.6966 26.0556C45.3889 26.0556 45.1072 26.0134 44.8542 25.9322C43.6973 25.5607 43.037 24.449 43.2269 23.244C43.4611 21.7602 44.6817 20.6674 46.2422 20.6674Z" fill="white"/>
<path d="M68.5102 13C68.3044 13 68.1296 13.1494 68.0974 13.3529L65.7151 28.4606C65.7065 28.5158 65.7099 28.5722 65.7251 28.626C65.7403 28.6797 65.767 28.7295 65.8033 28.772C65.8396 28.8144 65.8847 28.8485 65.9354 28.8719C65.9862 28.8953 66.0413 28.9074 66.0972 28.9074H68.9224C69.1279 28.9074 69.303 28.7577 69.3352 28.5545L70.035 24.118C70.0669 23.9149 70.242 23.7651 70.4478 23.7651H73.0164C76.0176 23.7651 78.5649 21.5754 79.03 18.6082C79.4995 15.6158 77.1621 13.0065 73.8488 13H68.5102ZM71.2566 16.3726H73.3117C75.0036 16.3726 75.5546 17.371 75.3804 18.475C75.2062 19.5814 74.3507 20.3963 72.7137 20.3963H70.622L71.2566 16.3726ZM84.7763 17.3996C84.0629 17.4023 83.2421 17.5484 82.3205 17.9323C80.2066 18.8134 79.1915 20.6343 78.7604 21.9619C78.7604 21.9619 77.3888 26.0122 80.4889 28.2374C80.4889 28.2374 83.3634 30.3796 86.6002 28.1054L86.5444 28.4606C86.5358 28.5158 86.5392 28.5722 86.5544 28.626C86.5696 28.6797 86.5963 28.7295 86.6326 28.772C86.6689 28.8144 86.714 28.8485 86.7647 28.8719C86.8155 28.8953 86.8707 28.9074 86.9265 28.9074H89.6082C89.814 28.9074 89.9888 28.7577 90.021 28.5545L91.653 18.2087C91.6617 18.1534 91.6584 18.097 91.6432 18.0431C91.6281 17.9893 91.6014 17.9394 91.5651 17.8969C91.5288 17.8544 91.4837 17.8202 91.4329 17.7968C91.3821 17.7734 91.3268 17.7613 91.2709 17.7613H88.5889C88.3831 17.7613 88.208 17.911 88.1761 18.1142L88.0884 18.6711C88.0884 18.6711 86.9168 17.3916 84.7763 17.3996ZM84.864 20.6674C85.172 20.6674 85.4537 20.7099 85.7065 20.7911C86.8636 21.1626 87.5197 22.2743 87.3299 23.4793C87.0957 24.9631 85.8789 26.0556 84.3183 26.0556C84.0107 26.0556 83.729 26.0134 83.4759 25.9322C82.319 25.5607 81.6588 24.449 81.8487 23.244C82.0828 21.7602 83.3035 20.6674 84.864 20.6674Z" fill="white"/>
<path d="M54.3028 17.761C54.0902 17.761 53.939 17.9686 54.004 18.1709L56.9443 27.2952L54.2857 31.595C54.1566 31.8037 54.3066 32.0733 54.552 32.0733H57.6943C57.7842 32.0732 57.8725 32.05 57.9508 32.0058C58.029 31.9617 58.0946 31.8981 58.1411 31.8212L66.353 18.2364C66.4791 18.0277 66.3285 17.7607 66.0846 17.7607H62.9426C62.8518 17.7608 62.7627 17.7845 62.6839 17.8295C62.6051 17.8745 62.5393 17.9392 62.4931 18.0173L59.2608 23.4746L57.6199 18.0578C57.5665 17.8815 57.4038 17.7607 57.2198 17.7607L54.3028 17.761Z" fill="white"/>
<path d="M94.7003 13C94.4948 13 94.3197 13.1497 94.2875 13.3529L91.9047 28.46C91.8959 28.5153 91.8993 28.5717 91.9144 28.6255C91.9296 28.6794 91.9563 28.7293 91.9926 28.7718C92.0289 28.8143 92.074 28.8484 92.1248 28.8718C92.1756 28.8953 92.2308 28.9074 92.2868 28.9074H95.1119C95.3175 28.9074 95.4926 28.7577 95.5247 28.5545L97.907 13.4468C97.9157 13.3916 97.9123 13.3353 97.8971 13.2816C97.8819 13.2278 97.8553 13.1781 97.819 13.1356C97.7828 13.0932 97.7378 13.0591 97.6871 13.0357C97.6365 13.0123 97.5813 13.0001 97.5255 13H94.7003Z" fill="white"/>
</svg>
