<svg width="17" height="17" viewBox="0 0 17 17" fill="none" xmlns="http://www.w3.org/2000/svg">
<path d="M15.3391 2.96291C15.3003 2.8751 15.243 2.7928 15.1671 2.72127L15.1638 2.71809C15.0191 2.5833 14.8199 2.5 14.5998 2.5H11.3998C10.9579 2.5 10.5998 2.83579 10.5998 3.25C10.5998 3.66421 10.9579 4 11.3998 4H12.6684L10.0341 6.46967C9.7217 6.76256 9.7217 7.23743 10.0341 7.53033C10.3465 7.82322 10.8531 7.82322 11.1655 7.53033L13.7998 5.06066V6.25C13.7998 6.66421 14.1579 7 14.5998 7C15.0416 7 15.3998 6.66421 15.3998 6.25V3.25C15.3998 3.14831 15.3782 3.05134 15.3391 2.96291Z" fill="white"/>
<path d="M2.6001 3.25C2.6001 2.83579 2.95827 2.5 3.4001 2.5H5.12239C5.51347 2.5 5.84722 2.76506 5.91151 3.1267L6.50296 6.4536C6.5607 6.77838 6.38575 7.10048 6.07162 7.24773L4.83311 7.82828C5.72615 9.90873 7.49744 11.5693 9.71658 12.4065L10.3359 11.2454C10.4929 10.9509 10.8365 10.7869 11.1829 10.841L14.7316 11.3955C15.1174 11.4558 15.4001 11.7687 15.4001 12.1353V13.75C15.4001 14.1642 15.0419 14.5 14.6001 14.5H13.0001C7.25634 14.5 2.6001 10.1348 2.6001 4.75V3.25Z" fill="white"/>
</svg>
