<svg width="18" height="19" viewBox="0 0 18 19" fill="none" xmlns="http://www.w3.org/2000/svg">
<path d="M17.2612 18.4994C17.1158 18.3857 16.9584 18.2846 16.8274 18.1561C15.3882 16.746 13.9533 15.332 12.5184 13.9177C12.4645 13.8645 12.4215 13.8001 12.3736 13.7413C12.0715 13.9427 11.8018 14.1367 11.5183 14.3085C10.602 14.8648 9.61044 15.2045 8.54489 15.3398C6.96557 15.5401 5.45704 15.2996 4.05766 14.5483C1.89979 13.3895 0.531758 11.6139 0.115186 9.17851C-0.24575 7.06913 0.243362 5.14389 1.55717 3.45139C2.76674 1.89339 4.35838 0.943093 6.30638 0.614944C7.97408 0.333975 9.57734 0.563539 11.0732 1.35398C13.1561 2.45427 14.5171 4.1517 14.9903 6.47022C15.4703 8.82078 14.8819 10.9305 13.3385 12.7705C13.3008 12.8153 13.2631 12.8603 13.2265 12.9057C13.2194 12.9145 13.2166 12.9265 13.2047 12.9533C13.2381 12.9895 13.2747 13.0329 13.3149 13.0723C14.7421 14.4775 16.171 15.8813 17.5958 17.2893C17.7426 17.4343 17.8658 17.6033 18 17.7614V18.0776C17.9127 18.2716 17.7697 18.4096 17.5781 18.4994H17.2619H17.2612ZM13.9786 7.90042C13.9632 7.69374 13.954 7.43601 13.923 7.18074C13.7998 6.1632 13.4459 5.22804 12.8518 4.3957C11.8183 2.94755 10.4179 2.0645 8.6618 1.75431C7.83288 1.60784 7.00607 1.63249 6.18525 1.80959C5.42429 1.97402 4.71298 2.26766 4.06083 2.69404C3.13648 3.29823 2.40686 4.08445 1.8931 5.06467C1.35997 6.08222 1.12968 7.16384 1.19201 8.31271C1.2325 9.05774 1.3973 9.77108 1.69873 10.4485C2.26319 11.7171 3.14951 12.7058 4.35697 13.3955C5.76586 14.2004 7.27756 14.4335 8.86286 14.124C10.0474 13.893 11.0919 13.3575 11.9725 12.5255C13.2864 11.2851 13.9448 9.75418 13.9779 7.90006L13.9786 7.90042Z" fill="white"/>
<path d="M17.5781 18.4999C17.7697 18.4105 17.9127 18.2721 18 18.0781V18.4999H17.5781Z" fill="white"/>
</svg>
