<svg width="125" height="45" viewBox="0 0 125 45" fill="none" xmlns="http://www.w3.org/2000/svg">
<rect width="125" height="44.7947" rx="5" fill="#5A31F4"/>
<mask id="mask0_513_3317" style="mask-type:luminance" maskUnits="userSpaceOnUse" x="15" y="11" width="95" height="23">
<path d="M110 11H15V33.7947H110V11Z" fill="white"/>
</mask>
<g mask="url(#mask0_513_3317)">
<path d="M39.3377 18.1664C38.5759 16.5695 37.1314 15.5379 34.9547 15.5379C34.2866 15.5495 33.6301 15.7144 33.0358 16.0196C32.4416 16.3248 31.9254 16.7624 31.5272 17.2985L31.4477 17.3952V11.1364C31.4477 11.1002 31.4334 11.0655 31.4078 11.0399C31.3822 11.0144 31.3474 11 31.3112 11H28.2336C28.1979 11.0006 28.1638 11.0153 28.1387 11.0408C28.1136 11.0663 28.0996 11.1006 28.0996 11.1364V29.0896C28.0996 29.1251 28.1138 29.1591 28.1389 29.1842C28.164 29.2094 28.1981 29.2235 28.2336 29.2235H31.5296C31.5654 29.2235 31.5998 29.2095 31.6253 29.1844C31.6508 29.1593 31.6655 29.1253 31.6661 29.0896V21.4347C31.6661 19.9469 32.6589 18.893 34.2473 18.893C35.9847 18.893 36.424 20.3213 36.424 21.7769V29.0896C36.424 29.1251 36.4381 29.1591 36.4632 29.1842C36.4884 29.2094 36.5225 29.2235 36.558 29.2235H39.8465C39.8824 29.2235 39.9167 29.2095 39.9422 29.1844C39.9677 29.1593 39.9825 29.1253 39.9831 29.0896V21.3404C39.9831 21.0751 39.9831 20.8147 39.9484 20.5618C39.8918 19.733 39.685 18.9213 39.3377 18.1664Z" fill="white"/>
<path d="M22.8802 20.8276C22.8802 20.8276 21.2024 20.4334 20.5844 20.2747C19.9664 20.116 18.8868 19.7787 18.8868 18.9629C18.8868 18.147 19.7579 17.8867 20.6415 17.8867C21.5251 17.8867 22.5079 18.0999 22.5849 19.0794C22.588 19.1147 22.6042 19.1475 22.6304 19.1715C22.6566 19.1953 22.6908 19.2085 22.7263 19.2084L25.9752 19.196C25.9943 19.196 26.0132 19.1921 26.0307 19.1845C26.0483 19.177 26.0641 19.1658 26.0771 19.1518C26.0902 19.1379 26.1002 19.1214 26.1065 19.1034C26.1129 19.0854 26.1155 19.0662 26.1141 19.0472C25.9131 15.9128 23.1606 14.792 20.6216 14.792C17.6111 14.792 15.4096 16.7758 15.4096 18.9629C15.4096 20.5598 15.8613 22.0576 19.4129 23.0991C20.0359 23.2801 20.8823 23.5156 21.6219 23.7215C22.5104 23.9695 22.9894 24.3439 22.9894 24.9341C22.9894 25.6185 21.9966 26.0945 21.0212 26.0945C19.609 26.0945 18.6063 25.5713 18.5244 24.6315C18.5201 24.5971 18.5034 24.5655 18.4773 24.5426C18.4512 24.5197 18.4176 24.5073 18.3829 24.5075L15.1416 24.5224C15.1226 24.5224 15.1037 24.5262 15.0862 24.5336C15.0688 24.541 15.0529 24.5519 15.0397 24.5656C15.0265 24.5792 15.0162 24.5954 15.0094 24.6131C15.0026 24.6308 14.9994 24.6497 15.0001 24.6687C15.149 27.627 18.0082 29.2215 20.6738 29.2215C24.6449 29.2215 26.4393 26.9897 26.4393 24.8993C26.4443 23.9174 26.2184 21.6806 22.8802 20.8276Z" fill="white"/>
<path d="M64.6754 15.5332C63.0252 15.5332 61.6426 16.4458 60.7515 17.5468V15.6622C60.7515 15.6271 60.7377 15.5934 60.713 15.5684C60.6888 15.5433 60.6552 15.5289 60.6199 15.5283H57.5376C57.5021 15.5283 57.4678 15.5424 57.4427 15.5675C57.4176 15.5926 57.4033 15.6267 57.4033 15.6622V33.2682C57.4042 33.3032 57.4187 33.3368 57.4438 33.3612C57.4689 33.3859 57.5026 33.3997 57.5376 33.3997H60.836C60.8708 33.3997 60.9043 33.3859 60.9289 33.3612C60.9536 33.3366 60.9674 33.303 60.9674 33.2682V27.4806H61.0171C61.5407 28.279 62.9728 29.2362 64.8444 29.2362C68.3634 29.2362 71.2973 26.32 71.2973 22.3798C71.2999 18.5982 68.381 15.5332 64.6754 15.5332ZM64.3702 25.8811C63.6757 25.8984 62.9911 25.7084 62.4051 25.3355C61.819 24.9625 61.3571 24.4235 61.0788 23.7872C60.8006 23.1509 60.7183 22.4462 60.8429 21.7631C60.967 21.0799 61.2924 20.4493 61.777 19.9517C62.2618 19.454 62.8839 19.1119 63.5641 18.9691C64.2441 18.8263 64.9514 18.8891 65.5955 19.1497C66.2398 19.4102 66.7915 19.8566 67.1808 20.432C67.5699 21.0073 67.7785 21.6854 67.7805 22.3798C67.7875 22.8336 67.7048 23.2845 67.5373 23.7064C67.3698 24.1283 67.1203 24.513 66.8034 24.8383C66.4867 25.1637 66.1087 25.4233 65.6908 25.6022C65.2733 25.7812 64.8246 25.876 64.3702 25.8811Z" fill="white"/>
<path d="M47.6424 14.7598C44.5673 14.7598 43.0335 15.8037 41.8023 16.6394L41.7651 16.6642C41.7017 16.7076 41.657 16.7734 41.6399 16.8483C41.6229 16.9233 41.6348 17.0018 41.6733 17.0684L42.8894 19.1612C42.9122 19.2004 42.9435 19.2341 42.9807 19.2598C43.0181 19.2855 43.0606 19.3027 43.1055 19.31C43.1492 19.3179 43.1941 19.316 43.237 19.3044C43.28 19.2929 43.3198 19.2719 43.3537 19.2431L43.4503 19.1637C44.0832 18.6331 45.0983 17.9239 47.5555 17.7304C48.923 17.6214 50.1045 17.9784 50.9755 18.7918C51.9336 19.6746 52.5071 21.1004 52.5071 22.6056C52.5071 25.3755 50.8738 27.1162 48.2505 27.1509C46.0886 27.1385 44.6366 26.0127 44.6366 24.3488C44.6366 23.466 45.0363 22.8908 45.8157 22.3155C45.8751 22.2729 45.9172 22.2104 45.9341 22.1392C45.9511 22.0681 45.9416 21.9933 45.9075 21.9286L44.8153 19.8655C44.7953 19.8286 44.768 19.796 44.7352 19.7696C44.7024 19.7432 44.6648 19.7236 44.6243 19.7118C44.5829 19.6995 44.5396 19.696 44.4969 19.7015C44.454 19.7071 44.4128 19.7215 44.3761 19.744C43.1501 20.4706 41.646 21.7997 41.7279 24.3538C41.8271 27.6047 44.5325 30.0869 48.0493 30.1886H48.2256H48.4663C52.6457 30.0522 55.6638 26.9526 55.6638 22.7494C55.6638 18.891 52.8493 14.7598 47.6424 14.7598Z" fill="white"/>
<path d="M84.2954 16.7432H82.2004C82.1515 16.7438 82.1044 16.7636 82.0697 16.7983C82.0347 16.8331 82.0149 16.88 82.0146 16.9291V21.3207C82.0149 21.3696 82.0349 21.4163 82.0699 21.4506C82.1047 21.4849 82.1515 21.5042 82.2004 21.5042H84.2954C85.571 21.5042 86.5118 20.4999 86.5118 19.1237C86.5118 17.7474 85.571 16.7432 84.2954 16.7432Z" fill="white"/>
<path d="M90.731 24.5123C90.731 25.1496 91.2694 25.5042 92.2076 25.5042C93.4833 25.5042 94.2376 24.8148 94.2376 23.5923V23.2402L92.3268 23.3394C91.319 23.389 90.731 23.8081 90.731 24.5123Z" fill="white"/>
<path d="M106.243 11.0401H78.0981C77.6367 11.0401 77.1792 11.131 76.7529 11.3076C76.3262 11.4842 75.9387 11.7431 75.6125 12.0694C75.286 12.3957 75.0272 12.7831 74.8507 13.2094C74.674 13.6357 74.5835 14.0925 74.584 14.5538V29.9479C74.584 30.8794 74.9541 31.7728 75.6132 32.4317C76.2723 33.0905 77.1662 33.461 78.0981 33.4617H106.243C106.706 33.463 107.164 33.3733 107.591 33.1976C108.019 33.0219 108.407 32.7637 108.735 32.4378C109.062 32.1119 109.322 31.7247 109.5 31.2983C109.678 30.8719 109.769 30.4147 109.77 29.9529V14.5588C109.771 14.096 109.681 13.6376 109.504 13.2099C109.327 12.7822 109.067 12.3937 108.739 12.0667C108.411 11.7397 108.022 11.4807 107.594 11.3045C107.166 11.1283 106.707 11.0384 106.243 11.0401ZM84.4022 23.2329H82.1884C82.1391 23.2329 82.092 23.2524 82.0568 23.2873C82.022 23.3222 82.0022 23.3695 82.0022 23.4189V26.5681C82.0022 26.6174 81.9826 26.6647 81.9479 26.6996C81.9129 26.7345 81.8656 26.7541 81.8163 26.7541H80.2574C80.2085 26.7534 80.1612 26.7336 80.1264 26.6988C80.0917 26.6642 80.0723 26.6172 80.0714 26.5681V15.2085C80.0714 15.1592 80.091 15.1119 80.1262 15.077C80.161 15.0421 80.2081 15.0225 80.2574 15.0225H84.4022C86.7502 15.0225 88.4304 16.731 88.4304 19.1289C88.4304 21.5268 86.7626 23.2378 84.415 23.2378L84.4022 23.2329ZM96.0674 26.5656C96.0678 26.5902 96.0634 26.6147 96.0539 26.6375C96.0447 26.6604 96.0311 26.6812 96.0139 26.6987C95.9963 26.7162 95.9758 26.7302 95.9529 26.7397C95.9305 26.7492 95.9058 26.7541 95.8812 26.7541H94.4094C94.3848 26.7541 94.3604 26.7492 94.3377 26.7397C94.3148 26.7302 94.2941 26.7162 94.277 26.6987C94.2598 26.6812 94.2459 26.6604 94.2369 26.6375C94.2277 26.6147 94.223 26.5902 94.2235 26.5656V26.2259C94.2257 26.1961 94.2186 26.1662 94.2026 26.1409C94.187 26.1155 94.1634 26.096 94.1352 26.0851C94.1075 26.0742 94.0769 26.0727 94.0481 26.0806C94.0188 26.0885 93.9935 26.1056 93.9753 26.1292C93.5358 26.6078 92.821 26.9549 91.6818 26.9549C90.0043 26.9549 88.8945 26.0821 88.8945 24.5744C88.8784 24.2068 88.9544 23.8409 89.1157 23.5101C89.2767 23.1792 89.5184 22.8939 89.8181 22.6799C90.4235 22.2261 91.3616 21.9905 92.7539 21.936L94.2305 21.8864V21.4549C94.2305 20.5845 93.6449 20.215 92.7042 20.215C91.7636 20.215 91.1704 20.5473 91.0317 21.0904C91.0205 21.1287 90.997 21.1623 90.9644 21.1856C90.9323 21.209 90.8929 21.2209 90.8528 21.2193H89.396C89.3692 21.22 89.3425 21.2148 89.3179 21.2041C89.2937 21.1933 89.2715 21.1774 89.2536 21.1573C89.236 21.1372 89.2228 21.1135 89.2153 21.0878C89.2076 21.0621 89.2057 21.035 89.2098 21.0085C89.4284 19.7191 90.4954 18.7396 92.7715 18.7396C95.1889 18.7396 96.0599 19.8629 96.0599 22.0079L96.0674 26.5656ZM105.236 19.1958L101.96 27.927C101.215 29.9554 99.9118 30.4761 98.4847 30.4761C98.216 30.4827 97.9476 30.4501 97.6881 30.3794C97.6476 30.3685 97.6122 30.3447 97.5862 30.3115C97.5609 30.2784 97.5471 30.2378 97.5466 30.1959V28.8692C97.5466 28.8415 97.5525 28.8141 97.5642 28.7889C97.5761 28.7638 97.593 28.7415 97.6144 28.7237C97.636 28.706 97.6608 28.6931 97.6877 28.6861C97.7145 28.6792 97.7427 28.6782 97.77 28.6833C97.9951 28.7259 98.2235 28.7475 98.4526 28.7478C98.8472 28.7675 99.2371 28.6544 99.5599 28.4264C99.8823 28.1985 100.119 27.8689 100.232 27.4905L100.329 27.1855C100.344 27.1447 100.344 27.0999 100.329 27.0591L97.266 19.1984C97.2568 19.1703 97.2541 19.1403 97.2585 19.111C97.2632 19.0817 97.2744 19.0539 97.2911 19.0297C97.3085 19.0056 97.3312 18.9858 97.3574 18.972C97.3835 18.9582 97.4128 18.9508 97.4423 18.9504H98.9317C98.9697 18.9507 99.0067 18.9625 99.0382 18.9842C99.0696 19.0058 99.0939 19.0364 99.1077 19.0719L101.188 24.6166C101.202 24.6528 101.226 24.684 101.258 24.706C101.29 24.728 101.327 24.7398 101.366 24.7398C101.405 24.7398 101.443 24.728 101.475 24.706C101.507 24.684 101.531 24.6528 101.545 24.6166L103.35 19.0868C103.361 19.0491 103.385 19.0162 103.418 18.993C103.45 18.9698 103.488 18.9575 103.528 18.9578H105.055C105.084 18.9577 105.113 18.9645 105.14 18.9777C105.166 18.9909 105.189 19.0101 105.206 19.0337C105.224 19.0573 105.236 19.0847 105.241 19.1138C105.246 19.1428 105.244 19.1726 105.236 19.2008V19.1958Z" fill="white"/>
</g>
</svg>
