<svg width="12" height="12" viewBox="0 0 12 12" fill="none" xmlns="http://www.w3.org/2000/svg">
<g clip-path="url(#clip0_513_1114)">
<path d="M6.44878 1.29973L7.59878 3.79973C7.64878 3.94973 7.79878 4.04973 7.94878 4.09973L10.5488 4.49973C10.9988 4.49973 11.1488 4.99973 10.8488 5.29973L8.94878 7.24973C8.84878 7.34973 8.79878 7.54973 8.79878 7.69973L9.24879 10.3997C9.29879 10.7997 8.89878 11.1497 8.54878 10.9497L6.19878 9.64973C6.04878 9.54973 5.89878 9.54973 5.74878 9.64973L3.39878 10.9497C3.04878 11.1497 2.59878 10.8497 2.69878 10.3997L3.14878 7.69973C3.19878 7.54973 3.09878 7.34973 2.99878 7.24973L1.09878 5.29973C0.848785 4.99973 0.998785 4.49973 1.39878 4.44973L3.99878 4.04973C4.14878 4.04973 4.29878 3.89973 4.34878 3.74973L5.49878 1.24973C5.74878 0.899727 6.24878 0.899727 6.44878 1.29973Z" fill="black"/>
</g>
<defs>
<clipPath id="clip0_513_1114">
<rect width="12" height="12" fill="white"/>
</clipPath>
</defs>
</svg>
