<svg width="13" height="12" viewBox="0 0 13 12" fill="none" xmlns="http://www.w3.org/2000/svg">
<path d="M6.63921 1.29973L7.78921 3.79973C7.83921 3.94973 7.98921 4.04973 8.13921 4.09973L10.7392 4.49973C11.1892 4.49973 11.3392 4.99973 11.0392 5.29973L9.13921 7.24973C9.03921 7.34973 8.98921 7.54973 8.98921 7.69973L9.43921 10.3997C9.48921 10.7997 9.08921 11.1497 8.73921 10.9497L6.38921 9.64973C6.23921 9.54973 6.08921 9.54973 5.93921 9.64973L3.58921 10.9497C3.23921 11.1497 2.78921 10.8497 2.88921 10.3997L3.33921 7.69973C3.38921 7.54973 3.28921 7.34973 3.18921 7.24973L1.28921 5.29973C1.03921 4.99973 1.18921 4.49973 1.58921 4.44973L4.18921 4.04973C4.33921 4.04973 4.48921 3.89973 4.53921 3.74973L5.68921 1.24973C5.93921 0.899727 6.43921 0.899727 6.63921 1.29973Z" fill="#727272"/>
</svg>
