<svg width="13" height="12" viewBox="0 0 13 12" fill="none" xmlns="http://www.w3.org/2000/svg">
<path d="M6.59332 1.29875L7.74332 3.79875C7.79332 3.94875 7.94332 4.04875 8.09332 4.09875L10.6933 4.49875C11.1433 4.49875 11.2933 4.99875 10.9933 5.29875L9.09332 7.24875C8.99332 7.34875 8.94332 7.54875 8.94332 7.69875L9.39332 10.3988C9.44332 10.7987 9.04332 11.1488 8.69332 10.9488L6.34332 9.64875C6.19332 9.54875 6.04332 9.54875 5.89332 9.64875L3.54332 10.9488C3.19332 11.1488 2.74332 10.8488 2.84332 10.3988L3.29332 7.69875C3.34332 7.54875 3.24332 7.34875 3.14332 7.24875L1.24332 5.29875C0.993316 4.99875 1.14332 4.49875 1.54332 4.44875L4.14332 4.04875C4.29332 4.04875 4.44332 3.89875 4.49332 3.74875L5.64332 1.24875C5.89332 0.89875 6.39332 0.89875 6.59332 1.29875Z" fill="white"/>
</svg>
