<svg width="17" height="17" viewBox="0 0 17 17" fill="none" xmlns="http://www.w3.org/2000/svg">
<path d="M9.13708 1.8425L10.7662 5.38417C10.8371 5.59667 11.0496 5.73833 11.2621 5.80917L14.9454 6.37583C15.5829 6.37583 15.7954 7.08417 15.3704 7.50917L12.6787 10.2717C12.5371 10.4133 12.4662 10.6967 12.4662 10.9092L13.1037 14.7342C13.1746 15.3008 12.6079 15.7967 12.1121 15.5133L8.78291 13.6717C8.57041 13.53 8.35791 13.53 8.14541 13.6717L4.81625 15.5133C4.32041 15.7967 3.68291 15.3717 3.82458 14.7342L4.46208 10.9092C4.53291 10.6967 4.39125 10.4133 4.24958 10.2717L1.55791 7.50917C1.20375 7.08417 1.41625 6.37583 1.98291 6.305L5.66625 5.73833C5.87875 5.73833 6.09125 5.52583 6.16208 5.31333L7.79125 1.77167C8.14541 1.27583 8.85375 1.27583 9.13708 1.8425Z" fill="#FFE502"/>
</svg>
