<svg width="76" height="45" viewBox="0 0 76 45" fill="none" xmlns="http://www.w3.org/2000/svg">
<path d="M75.999 24.169C75.6619 25.8741 75.305 27.599 74.968 29.3042C74.512 31.7032 74.0758 34.1221 73.6197 36.5211C73.4215 37.5521 72.906 37.9883 71.8353 38.0082C71.0621 38.028 70.3087 38.0082 69.5751 38.0082C67.9493 42.3304 65.4114 44.3726 61.7236 44.3528C58.0755 44.3329 55.4781 42.2511 53.9316 38.0082C53.7136 38.0082 53.4756 38.0082 53.2377 38.0082C47.3095 38.0082 41.3614 38.0082 35.4331 37.9883C34.8582 37.9883 34.6401 38.1668 34.4815 38.7021C33.4703 42.0925 30.3773 44.3528 26.8679 44.3329C23.3982 44.3131 20.3052 41.9934 19.3337 38.603C19.1751 38.0676 18.9372 37.9685 18.4613 37.9883C17.1329 38.0082 15.7847 38.0082 14.4563 37.9883C13.3856 37.9685 12.6719 37.3341 12.6719 36.422C12.6719 35.4902 13.3856 34.8557 14.4563 34.8557C16.0028 34.8359 17.5691 34.8557 19.1354 34.8557C19.2544 34.4592 19.3535 34.1023 19.4923 33.7454C20.6423 30.5929 23.7551 28.4318 27.0265 28.5111C30.4963 28.5904 33.4703 30.7912 34.4616 34.0824C34.6401 34.7169 34.9177 34.8755 35.5125 34.8557C37.9908 34.816 40.4494 34.8359 43.0467 34.8359C45.4457 24.3276 47.8448 13.7995 50.2637 3.19213C49.8275 3.19213 49.5103 3.19213 49.193 3.19213C37.7926 3.19213 26.3921 3.19213 14.9916 3.19213C14.6149 3.19213 14.2382 3.19213 13.8813 3.11283C13.1675 2.95421 12.6917 2.31975 12.6719 1.60598C12.6719 0.892212 13.1477 0.257748 13.8615 0.0793064C14.1391 0.0198257 14.4563 0 14.7339 0C27.0662 0 39.4184 0 51.7507 0C53.4161 0 54.0506 0.793078 53.6739 2.41888C53.1386 4.75846 52.6032 7.0782 52.0481 9.49708C52.4248 9.49708 52.7024 9.49708 52.9998 9.49708C56.3703 9.51691 59.7409 9.41778 63.0917 9.61605C69.4759 10.0126 74.968 15.3064 75.8205 21.651C75.8602 21.8889 75.9197 22.1268 75.9791 22.3647C75.999 22.9992 75.999 23.594 75.999 24.169ZM53.9713 34.8359C54.923 30.9101 58.1151 28.6499 61.5848 28.5309C65.1933 28.4119 67.8898 30.5334 69.5354 34.816C69.9121 34.816 70.3087 34.816 70.725 34.816C71.3 31.7429 71.8552 28.7093 72.4301 25.6758C72.6879 24.288 72.9655 22.9397 72.6482 21.5122C71.5379 16.4563 67.1958 12.828 62.0012 12.7289C59.4039 12.6694 56.8065 12.709 54.2092 12.709C53.2774 12.709 52.3455 12.709 51.3541 12.709C49.6689 20.1045 48.0034 27.4603 46.3181 34.8359C48.9551 34.8359 51.4335 34.8359 53.9713 34.8359ZM61.7633 31.723C59.1263 31.723 57.0048 33.8247 57.0048 36.4617C57.0048 39.0788 59.1858 41.24 61.7831 41.2003C64.3804 41.1805 66.4821 39.059 66.5019 36.4815C66.5019 33.8445 64.4002 31.723 61.7633 31.723ZM31.6264 36.541C31.6264 33.8247 29.6239 31.7429 26.9671 31.723C24.3301 31.7032 22.2086 33.7652 22.1888 36.3625C22.1888 39.0788 24.2904 41.24 26.9274 41.2003C29.5247 41.1805 31.6264 39.0986 31.6264 36.541Z" fill="black"/>
<path d="M11.1048 28.5119C7.99202 28.5119 4.8792 28.5317 1.76638 28.5119C0.39832 28.5119 -0.394756 27.3222 0.200051 26.2119C0.537108 25.5775 1.11209 25.3594 1.80603 25.3594C4.72058 25.3594 7.63514 25.3594 10.5497 25.3594C13.8211 25.3594 17.0727 25.3594 20.3442 25.3594C21.3355 25.3594 21.97 25.8154 22.1286 26.5886C22.3467 27.6593 21.6329 28.492 20.4433 28.492C17.3305 28.5317 14.2177 28.5119 11.1048 28.5119Z" fill="black"/>
<path d="M12.6496 19.0138C10.0324 19.0138 7.41526 19.0336 4.77828 19.0138C3.82659 19.0138 3.15247 18.3 3.1723 17.4277C3.19213 16.5553 3.86624 15.901 4.81793 15.8613C4.89724 15.8613 4.95672 15.8613 5.03603 15.8613C10.1315 15.8613 15.2271 15.8613 20.3226 15.8613C21.4527 15.8613 22.1466 16.476 22.1268 17.4673C22.1268 18.419 21.4527 19.0138 20.3424 19.0138C17.7847 19.0336 15.2271 19.0138 12.6496 19.0138Z" fill="black"/>
<path d="M14.1993 9.51666C12.1572 9.51666 10.0952 9.53648 8.053 9.51666C6.90304 9.49683 6.22892 8.70376 6.40736 7.65293C6.52633 6.93916 7.14096 6.38401 7.93404 6.38401C12.1572 6.36418 16.3803 6.36418 20.6034 6.38401C21.5353 6.38401 22.1499 7.05812 22.1697 7.93051C22.1896 8.84254 21.5551 9.51666 20.5836 9.51666C18.4423 9.53648 16.3208 9.51666 14.1993 9.51666Z" fill="black"/>
</svg>
