<svg width="18" height="19" viewBox="0 0 18 19" fill="none" xmlns="http://www.w3.org/2000/svg">
<path d="M9.67817 18.4537C9.23692 18.4537 8.79568 18.4537 8.35885 18.4537C8.11175 18.4184 7.86466 18.3919 7.62197 18.3522C5.44665 17.9815 3.58902 17.002 2.19028 15.2899C-0.126245 12.4528 -0.629261 9.2714 0.795952 5.90472C2.49915 1.885 6.72184 -0.206493 10.9887 0.715704C14.4083 1.45258 17.1837 4.29418 17.8235 7.71381C17.8897 8.08004 17.9426 8.45069 18 8.81692C18 9.25816 18 9.6994 18 10.1362C17.9647 10.3833 17.9382 10.6304 17.8985 10.8731C17.5235 13.0749 16.4998 14.9061 14.7966 16.3533C13.6935 17.2888 12.4315 17.9198 11.0195 18.2286C10.5783 18.3257 10.1238 18.3786 9.67817 18.4537ZM6.7439 12.1439C4.55975 10.5951 4.4715 7.70499 6.04674 6.01062C7.56903 4.37361 10.1591 4.27653 11.7961 5.81647C12.5727 6.54452 13.0051 7.45348 13.0625 8.51687C13.1419 10.0303 12.5198 11.2261 11.2931 12.1395C12.7713 12.6778 13.9273 13.5956 14.7878 14.884C17.6647 11.8615 17.7529 6.84015 14.4524 3.71615C11.1828 0.618631 5.95408 0.856902 2.98452 4.35154C0.160563 7.6741 0.725353 12.3292 3.25809 14.8796C3.67727 14.2486 4.17587 13.6971 4.76714 13.2338C5.36281 12.766 6.01585 12.4086 6.7439 12.1439ZM4.04791 15.6076C6.86304 18.0212 11.324 17.9374 13.9891 15.5988C12.7757 13.7721 11.0857 12.7837 8.87952 12.8278C6.79244 12.8763 5.19073 13.8647 4.04791 15.6076ZM12.0123 8.76838C12.0123 7.12255 10.6577 5.77234 9.0163 5.77234C7.37929 5.77676 6.0335 7.11813 6.02909 8.75514C6.02026 10.3966 7.37488 11.7556 9.0163 11.76C10.6533 11.7688 12.0123 10.4142 12.0123 8.76838Z" fill="white"/>
</svg>
