<svg width="16" height="16" viewBox="0 0 16 16" fill="none" xmlns="http://www.w3.org/2000/svg">
<path d="M8.05115 1.99805C8.05684 1.99806 8.06298 1.99807 8.06955 1.99809L8.14035 1.99831C8.96214 2.00133 13.1273 2.03152 14.2503 2.33343C14.9387 2.51807 15.4808 3.06223 15.6648 3.75296C15.7661 4.13246 15.8367 4.63686 15.8859 5.15561L15.8954 5.25952C15.9032 5.34622 15.9103 5.43311 15.9169 5.51968L15.9246 5.62338C15.9904 6.53749 15.998 7.39289 15.9989 7.58004L15.999 7.60529C15.999 7.60736 15.999 7.61074 15.999 7.61074V7.62491C15.999 7.62491 15.999 7.62829 15.999 7.63036L15.9989 7.6556C15.998 7.84983 15.9898 8.76372 15.9169 9.71603L15.9087 9.82003L15.9 9.92415C15.8505 10.4967 15.7762 11.0653 15.6648 11.4827C15.4808 12.1734 14.9387 12.7177 14.2503 12.9022C13.0898 13.2143 8.68109 13.2362 8.06955 13.2377L8.02246 13.2378C8.0186 13.2378 8.0152 13.2378 8.01228 13.2378L7.99307 13.2378C7.99307 13.2378 7.98866 13.2378 7.98573 13.2378L7.92846 13.2377C7.61941 13.2369 6.34057 13.231 5.0013 13.185L4.83007 13.1789C4.8015 13.1778 4.77292 13.1767 4.74434 13.1757L4.57291 13.1689L4.40188 13.1616C3.29238 13.1129 2.23452 13.0331 1.74789 12.9022C1.05947 12.7177 0.517371 12.1734 0.333379 11.4827C0.221913 11.0653 0.147602 10.4967 0.0980616 9.92415L0.0893244 9.82003L0.0811165 9.71603C0.0109033 8.79835 0.000711116 7.91634 -0.000768403 7.67962L-0.000945201 7.64573C-0.000957608 7.64268 -0.000967947 7.63987 -0.000976562 7.6373V7.59834C-0.000967947 7.59578 -0.000957608 7.59297 -0.000945201 7.58992L-0.000768403 7.55603C0.000571538 7.34165 0.00905783 6.59801 0.0628044 5.77793L0.0697612 5.67506C0.0709608 5.65785 0.0721808 5.64063 0.0734215 5.62338L0.0811165 5.51968C0.0877404 5.43311 0.0948985 5.34622 0.102634 5.25952L0.112196 5.15561C0.16142 4.63686 0.232046 4.13246 0.333379 3.75296C0.517371 3.06223 1.05947 2.51807 1.74789 2.33343C2.23452 2.2026 3.29238 2.1228 4.40188 2.07412L4.57291 2.06687L4.74434 2.0601C4.77292 2.05901 4.8015 2.05794 4.83007 2.05689L5.0013 2.0508C6.25508 2.00776 7.45591 1.99979 7.85767 1.99831L7.92846 1.99809C7.93504 1.99807 7.94117 1.99806 7.94686 1.99805H8.05115ZM6.39905 5.20924V10.0264L10.5558 7.61796L6.39905 5.20924Z" fill="white"/>
</svg>
